<?xml version="1.0" standalone="no"?>
<!DOCTYPE svg PUBLIC "-//W3C//DTD SVG 1.1//EN" "http://www.w3.org/Graphics/SVG/1.1/DTD/svg11.dtd">
<svg stroke-width="0.501" stroke-linejoin="bevel" fill-rule="evenodd" xmlns:xlink="http://www.w3.org/1999/xlink" xmlns="http://www.w3.org/2000/svg" version="1.1" overflow="visible" width="595.277pt" height="841.891pt" viewBox="0 0 595.277 841.891">
 <defs>
  <marker id="DefaultArrow2" markerUnits="strokeWidth" viewBox="0 0 1 1" markerWidth="1" markerHeight="1" overflow="visible" orient="auto">
   <!-- REF_ARROW_STRAIGHT (-2) -->
   <g transform="scale(0.0092592592)">
    <!-- 1/108 -->
    <path d="M -9 54 L -9 -54 L 117 0 z"/>
   </g>
  </marker>
  <marker id="DefaultArrow3" markerUnits="strokeWidth" viewBox="0 0 1 1" markerWidth="1" markerHeight="1" overflow="visible" orient="auto">
   <!-- REF_ARROW_ANGLED -->
   <g transform="scale(0.0092592592)">
    <path d="M -27 54 L -9 0 L -27 -54 L 135 0 z"/>
   </g>
  </marker>
  <marker id="DefaultArrow4" markerUnits="strokeWidth" viewBox="0 0 1 1" markerWidth="1" markerHeight="1" overflow="visible" orient="auto">
   <!-- REF_ARROW_ROUNDED -->
   <g transform="scale(0.0092592592)">
    <path d="M -9,0 L -9,-45 C -9,-51.708 2.808,-56.580 9,-54 L 117,-9 C 120.916,-7.369 126.000,-4.242 126,0 C 126,4.242 120.916,7.369 117,9 L 9,54 C 2.808,56.580 -9,51.708 -9,45 z"/>
   </g>
  </marker>
  <marker id="DefaultArrow5" markerUnits="strokeWidth" viewBox="0 0 1 1" markerWidth="1" markerHeight="1" overflow="visible" orient="auto">
   <!-- REF_ARROW_SPOT -->
   <g transform="scale(0.0092592592)">
    <path d="M -54, 0 C -54,29.807 -29.807,54 0,54 C 29.807,54 54,29.807 54,0 C 54,-29.807 29.807,-54 0,-54 C -29.807,-54 -54,-29.807 -54,0 z"/>
   </g>
  </marker>
  <marker id="DefaultArrow6" markerUnits="strokeWidth" viewBox="0 0 1 1" markerWidth="1" markerHeight="1" overflow="visible" orient="auto">
   <!-- REF_ARROW_DIAMOND -->
   <g transform="scale(0.0092592592)">
    <path d="M -63,0 L 0,63 L 63,0 L 0,-63 z"/>
   </g>
  </marker>
  <marker id="DefaultArrow7" markerUnits="strokeWidth" viewBox="0 0 1 1" markerWidth="1" markerHeight="1" overflow="visible" orient="auto">
   <!-- REF_ARROW_FEATHER -->
   <g transform="scale(0.0092592592)">
    <path d="M 18,-54 L 108,-54 L 63,0 L 108,54 L 18, 54 L -36,0 z"/>
   </g>
  </marker>
  <marker id="DefaultArrow8" markerUnits="strokeWidth" viewBox="0 0 1 1" markerWidth="1" markerHeight="1" overflow="visible" orient="auto">
   <!-- REF_ARROW_FEATHER2 -->
   <g transform="scale(0.0092592592)">
    <path d="M -36,0 L 18,-54 L 54,-54 L 18,-18 L 27,-18 L 63,-54 L 99,-54 L 63,-18 L 72,-18 L 108,-54 L 144,-54 L 90,0 L 144,54 L 108,54 L 72,18 L 63,18 L 99,54 L 63,54 L 27,18 L 18,18 L 54,54 L 18,54 z"/>
   </g>
  </marker>
  <marker id="DefaultArrow9" markerUnits="strokeWidth" viewBox="0 0 1 1" markerWidth="1" markerHeight="1" overflow="visible" orient="auto">
   <!-- REF_ARROW_HOLLOWDIAMOND -->
   <g transform="scale(0.0092592592)">
    <path d="M 0,45 L -45,0 L 0, -45 L 45, 0 z M 0, 63 L-63, 0 L 0, -63 L 63, 0 z"/>
   </g>
  </marker>
  <filter id="StainedFilter">
   <feBlend mode="multiply" in2="BackgroundImage" in="SourceGraphic" result="blend"/>
   <feComposite in="blend" in2="SourceAlpha" operator="in" result="comp"/>
  </filter>
  <filter id="BleachFilter">
   <feBlend mode="screen" in2="BackgroundImage" in="SourceGraphic" result="blend"/>
   <feComposite in="blend" in2="SourceAlpha" operator="in" result="comp"/>
  </filter>
  <filter id="InvertTransparencyBitmapFilter">
   <feComponentTransfer>
    <feFuncR type="gamma" amplitude="1.055" exponent=".416666666" offset="-0.055"/>
    <feFuncG type="gamma" amplitude="1.055" exponent=".416666666" offset="-0.055"/>
    <feFuncB type="gamma" amplitude="1.055" exponent=".416666666" offset="-0.055"/>
   </feComponentTransfer>
   <feComponentTransfer>
    <feFuncR type="linear" slope="-1" intercept="1"/>
    <feFuncG type="linear" slope="-1" intercept="1"/>
    <feFuncB type="linear" slope="-1" intercept="1"/>
    <feFuncA type="linear" slope="1" intercept="0"/>
   </feComponentTransfer>
   <feComponentTransfer>
    <feFuncR type="gamma" amplitude="1" exponent="2.4" offset="0"/>
    <feFuncG type="gamma" amplitude="1" exponent="2.4" offset="0"/>
    <feFuncB type="gamma" amplitude="1" exponent="2.4" offset="0"/>
   </feComponentTransfer>
  </filter>
 </defs>
 <g id="Document" fill="none" stroke="black" font-family="Times New Roman" font-size="16" transform="scale(1 -1)">
  <g id="Spread" transform="translate(0 -841.891)">
   <g id="Layer 1">
    <g id="Group" stroke-linejoin="miter">
     <path d="M 194.664,371.12 L 194.664,346.707 L 382.165,346.707 L 382.165,371.12 L 194.664,371.12 Z" stroke="#000000" stroke-width="0.75" marker-start="none" marker-end="none" stroke-miterlimit="79.8403193612775"/>
     <g id="Group_1" stroke-linecap="round" stroke="#333333">
      <path d="M 286.167,364.33 C 289.156,365.189 292.281,363.458 293.139,360.47 C 293.998,357.481 292.267,354.356 289.279,353.498 C 286.29,352.639 283.165,354.37 282.307,357.358 C 281.448,360.347 283.179,363.472 286.167,364.33 Z" stroke-width="0.729" marker-start="none" marker-end="none" stroke-miterlimit="79.8403193612775"/>
      <path d="M 335.093,363.605 L 335.093,354.224 C 335.093,353.726 335.496,353.323 335.994,353.323 L 345.375,353.323 C 345.873,353.323 346.276,353.726 346.276,354.224 L 346.276,363.605 C 346.276,364.103 345.873,364.506 345.375,364.506 L 335.994,364.506 C 335.496,364.506 335.093,364.103 335.093,363.605 Z" stroke-width="0.816" marker-start="none" marker-end="none" stroke-miterlimit="79.8403193612775"/>
      <path d="M 239.235,353.495 L 231.072,358.207 C 230.397,358.597 230.397,359.231 231.072,359.621 L 239.234,364.334 C 239.91,364.723 240.458,364.407 240.458,363.627 L 240.459,354.202 C 240.459,353.422 239.911,353.106 239.235,353.495 Z" stroke-width="0.828" marker-start="none" marker-end="none" stroke-miterlimit="79.8403193612775"/>
     </g>
    </g>
    <path d="M 179.942,704.958 L 179.942,328.289 C 179.942,320.232 186.482,313.692 194.539,313.692 L 382.29,313.692 C 390.347,313.692 396.887,320.232 396.887,328.289 L 396.887,704.958 C 396.887,713.015 390.347,719.555 382.29,719.555 L 194.539,719.555 C 186.482,719.555 179.942,713.015 179.942,704.958 Z" stroke-width="2.25" stroke-linejoin="miter" stroke="#000000" stroke-linecap="round" marker-start="none" marker-end="none" stroke-miterlimit="79.8403193612775"/>
    <g id="Group_2" stroke-linejoin="miter" stroke="#000000" stroke-width="0.75" stroke-miterlimit="79.8403193612775">
     <path d="M 323.057,703.759 C 325.184,705.637 328.437,705.433 330.315,703.305 C 332.193,701.178 331.989,697.925 329.861,696.047 C 327.734,694.169 324.481,694.373 322.603,696.501 C 320.725,698.628 320.929,701.881 323.057,703.759 Z" marker-start="none" marker-end="none"/>
     <path d="M 259.667,700.007 L 259.667,699.63 C 259.667,697.561 261.347,695.881 263.416,695.881 L 311.793,695.881 C 313.862,695.881 315.542,697.561 315.542,699.63 L 315.542,700.007 C 315.542,702.076 313.862,703.756 311.793,703.756 L 263.416,703.756 C 261.347,703.756 259.667,702.076 259.667,700.007 Z" marker-start="none" marker-end="none"/>
    </g>
    <path d="M 194.664,679.181 L 194.664,346.706 L 382.165,346.706 L 382.165,679.181 L 194.664,679.181 Z" stroke="#000000" stroke-width="0.75" stroke-linejoin="miter" marker-start="none" marker-end="none" stroke-miterlimit="79.8403193612775"/>
    <path d="M 194.664,679.19 L 194.664,666.497 L 382.165,666.497 L 382.165,679.19 L 194.664,679.19 Z" stroke="#000000" stroke-width="0.75" stroke-linejoin="miter" marker-start="none" marker-end="none" stroke-miterlimit="79.8403193612775"/>
    <text xml:space="preserve" transform="translate(348.213 669.752) scale(1 -1)" fill="#000000" font-size="8" font-family="Open Sans" stroke="none" stroke-linecap="round" stroke-linejoin="round" stroke-width="0.375" stroke-miterlimit="79.8403193612775"><tspan x="10.475" y="0">10:15</tspan></text>
   </g>
  </g>
 </g>
</svg>
