<?xml version="1.0" standalone="no"?>
<!DOCTYPE svg PUBLIC "-//W3C//DTD SVG 1.1//EN" "http://www.w3.org/Graphics/SVG/1.1/DTD/svg11.dtd">
<svg stroke-width="0.501" stroke-linejoin="bevel" fill-rule="evenodd" xmlns:xlink="http://www.w3.org/1999/xlink" xmlns="http://www.w3.org/2000/svg" version="1.1" overflow="visible" width="841.891pt" height="595.277pt" viewBox="0 0 841.891 595.277">
 <defs>
  <marker id="DefaultArrow2" markerUnits="strokeWidth" viewBox="0 0 1 1" markerWidth="1" markerHeight="1" overflow="visible" orient="auto">
   <!-- REF_ARROW_STRAIGHT (-2) -->
   <g transform="scale(0.0092592592)">
    <!-- 1/108 -->
    <path d="M -9 54 L -9 -54 L 117 0 z"/>
   </g>
  </marker>
  <marker id="DefaultArrow3" markerUnits="strokeWidth" viewBox="0 0 1 1" markerWidth="1" markerHeight="1" overflow="visible" orient="auto">
   <!-- REF_ARROW_ANGLED -->
   <g transform="scale(0.0092592592)">
    <path d="M -27 54 L -9 0 L -27 -54 L 135 0 z"/>
   </g>
  </marker>
  <marker id="DefaultArrow4" markerUnits="strokeWidth" viewBox="0 0 1 1" markerWidth="1" markerHeight="1" overflow="visible" orient="auto">
   <!-- REF_ARROW_ROUNDED -->
   <g transform="scale(0.0092592592)">
    <path d="M -9,0 L -9,-45 C -9,-51.708 2.808,-56.580 9,-54 L 117,-9 C 120.916,-7.369 126.000,-4.242 126,0 C 126,4.242 120.916,7.369 117,9 L 9,54 C 2.808,56.580 -9,51.708 -9,45 z"/>
   </g>
  </marker>
  <marker id="DefaultArrow5" markerUnits="strokeWidth" viewBox="0 0 1 1" markerWidth="1" markerHeight="1" overflow="visible" orient="auto">
   <!-- REF_ARROW_SPOT -->
   <g transform="scale(0.0092592592)">
    <path d="M -54, 0 C -54,29.807 -29.807,54 0,54 C 29.807,54 54,29.807 54,0 C 54,-29.807 29.807,-54 0,-54 C -29.807,-54 -54,-29.807 -54,0 z"/>
   </g>
  </marker>
  <marker id="DefaultArrow6" markerUnits="strokeWidth" viewBox="0 0 1 1" markerWidth="1" markerHeight="1" overflow="visible" orient="auto">
   <!-- REF_ARROW_DIAMOND -->
   <g transform="scale(0.0092592592)">
    <path d="M -63,0 L 0,63 L 63,0 L 0,-63 z"/>
   </g>
  </marker>
  <marker id="DefaultArrow7" markerUnits="strokeWidth" viewBox="0 0 1 1" markerWidth="1" markerHeight="1" overflow="visible" orient="auto">
   <!-- REF_ARROW_FEATHER -->
   <g transform="scale(0.0092592592)">
    <path d="M 18,-54 L 108,-54 L 63,0 L 108,54 L 18, 54 L -36,0 z"/>
   </g>
  </marker>
  <marker id="DefaultArrow8" markerUnits="strokeWidth" viewBox="0 0 1 1" markerWidth="1" markerHeight="1" overflow="visible" orient="auto">
   <!-- REF_ARROW_FEATHER2 -->
   <g transform="scale(0.0092592592)">
    <path d="M -36,0 L 18,-54 L 54,-54 L 18,-18 L 27,-18 L 63,-54 L 99,-54 L 63,-18 L 72,-18 L 108,-54 L 144,-54 L 90,0 L 144,54 L 108,54 L 72,18 L 63,18 L 99,54 L 63,54 L 27,18 L 18,18 L 54,54 L 18,54 z"/>
   </g>
  </marker>
  <marker id="DefaultArrow9" markerUnits="strokeWidth" viewBox="0 0 1 1" markerWidth="1" markerHeight="1" overflow="visible" orient="auto">
   <!-- REF_ARROW_HOLLOWDIAMOND -->
   <g transform="scale(0.0092592592)">
    <path d="M 0,45 L -45,0 L 0, -45 L 45, 0 z M 0, 63 L-63, 0 L 0, -63 L 63, 0 z"/>
   </g>
  </marker>
  <filter id="StainedFilter">
   <feBlend mode="multiply" in2="BackgroundImage" in="SourceGraphic" result="blend"/>
   <feComposite in="blend" in2="SourceAlpha" operator="in" result="comp"/>
  </filter>
  <filter id="BleachFilter">
   <feBlend mode="screen" in2="BackgroundImage" in="SourceGraphic" result="blend"/>
   <feComposite in="blend" in2="SourceAlpha" operator="in" result="comp"/>
  </filter>
  <filter id="InvertTransparencyBitmapFilter">
   <feComponentTransfer>
    <feFuncR type="gamma" amplitude="1.055" exponent=".416666666" offset="-0.055"/>
    <feFuncG type="gamma" amplitude="1.055" exponent=".416666666" offset="-0.055"/>
    <feFuncB type="gamma" amplitude="1.055" exponent=".416666666" offset="-0.055"/>
   </feComponentTransfer>
   <feComponentTransfer>
    <feFuncR type="linear" slope="-1" intercept="1"/>
    <feFuncG type="linear" slope="-1" intercept="1"/>
    <feFuncB type="linear" slope="-1" intercept="1"/>
    <feFuncA type="linear" slope="1" intercept="0"/>
   </feComponentTransfer>
   <feComponentTransfer>
    <feFuncR type="gamma" amplitude="1" exponent="2.4" offset="0"/>
    <feFuncG type="gamma" amplitude="1" exponent="2.4" offset="0"/>
    <feFuncB type="gamma" amplitude="1" exponent="2.4" offset="0"/>
   </feComponentTransfer>
  </filter>
 </defs>
 <g id="Document" fill="none" stroke="black" font-family="Times New Roman" font-size="16" transform="scale(1 -1)">
  <g id="Spread" transform="translate(0 -595.277)">
   <g id="Phone">
    <path d="M 312.473,541.708 L 312.473,165.039 C 312.473,156.982 319.013,150.442 327.07,150.442 L 514.821,150.442 C 522.878,150.442 529.418,156.982 529.418,165.039 L 529.418,541.708 C 529.418,549.765 522.878,556.305 514.821,556.305 L 327.07,556.305 C 319.013,556.305 312.473,549.765 312.473,541.708 Z" stroke-width="2.25" stroke-linejoin="miter" stroke="#000000" stroke-linecap="round" marker-start="none" marker-end="none" stroke-miterlimit="79.8403193612775"/>
    <path d="M 455.588,540.509 C 457.715,542.387 460.968,542.183 462.846,540.055 C 464.724,537.928 464.52,534.675 462.392,532.797 C 460.265,530.919 457.012,531.123 455.134,533.251 C 453.256,535.378 453.46,538.631 455.588,540.509 Z" stroke-linejoin="miter" stroke="#000000" stroke-width="0.75" marker-start="none" marker-end="none" stroke-miterlimit="79.8403193612775"/>
    <path d="M 392.198,536.757 L 392.198,536.38 C 392.198,534.311 393.878,532.631 395.947,532.631 L 444.324,532.631 C 446.393,532.631 448.073,534.311 448.073,536.38 L 448.073,536.757 C 448.073,538.826 446.393,540.506 444.324,540.506 L 395.947,540.506 C 393.878,540.506 392.198,538.826 392.198,536.757 Z" stroke-linejoin="miter" stroke="#000000" stroke-width="0.75" marker-start="none" marker-end="none" stroke-miterlimit="79.8403193612775"/>
    <path d="M 327.195,515.931 L 327.195,183.456 L 514.696,183.456 L 514.696,515.931 L 327.195,515.931 Z" stroke="#000000" stroke-width="0.75" stroke-linejoin="miter" marker-start="none" marker-end="none" stroke-miterlimit="79.8403193612775"/>
    <path d="M 327.195,515.94 L 327.195,503.247 L 514.696,503.247 L 514.696,515.94 L 327.195,515.94 Z" fill="#000000" stroke="#000000" stroke-width="0.75" stroke-linejoin="miter" marker-start="none" marker-end="none" stroke-miterlimit="79.8403193612775"/>
    <text xml:space="preserve" transform="translate(480.744 506.502) scale(1 -1)" font-size="8" font-family="Open Sans" fill="#ffffff" stroke="none" stroke-linecap="round" stroke-linejoin="round" stroke-width="0.375" stroke-miterlimit="79.8403193612775"><tspan x="10.475" y="0">10:15</tspan></text>
    <path d="M 327.195,207.87 L 327.195,183.457 L 514.696,183.457 L 514.696,207.87 L 327.195,207.87 Z" fill="#000000" stroke="#000000" stroke-width="0.75" stroke-linejoin="miter" marker-start="none" marker-end="none" stroke-miterlimit="79.8403193612775"/>
    <path d="M 412.074,191.489 L 412.074,196.783 L 420.942,200.216 L 429.809,196.783 L 429.809,191.489 L 412.074,191.489 Z" stroke="#ffffff" stroke-width="0.877" stroke-linejoin="miter" marker-start="none" marker-end="none" stroke-miterlimit="79.8403193612775"/>
    <path d="M 465.241,196.402 L 465.241,191.221 L 478.552,191.221 L 478.552,196.402 L 465.241,196.402 Z" stroke="#ffffff" stroke-width="0.878" stroke-linejoin="miter" marker-start="none" marker-end="none" stroke-miterlimit="79.8403193612775"/>
    <path d="M 469.421,199.054 L 481.929,199.054" fill="none" stroke="#ffffff" stroke-width="0.878" stroke-linejoin="round" stroke-linecap="square" stroke-miterlimit="79.8403193612775"/>
    <path d="M 481.929,193.688 L 481.929,198.897" fill="none" stroke="#ffffff" stroke-width="0.878" stroke-linejoin="round" stroke-linecap="square" stroke-miterlimit="79.8403193612775"/>
    <path d="M 361.922,196.483 L 373.777,196.408 C 378.154,196.475 378.596,191.413 373.245,191.318 L 367.41,191.384" fill="none" stroke="#ffffff" stroke-linejoin="round" stroke-linecap="square" stroke-width="0.881" stroke-miterlimit="79.8403193612775"/>
    <path d="M 363.518,199.34 L 360.915,196.577 L 363.818,193.682" fill="none" stroke="#ffffff" stroke-linejoin="round" stroke-linecap="square" stroke-width="0.881" stroke-miterlimit="79.8403193612775"/>
   </g>
  </g>
 </g>
</svg>
