<?xml version="1.0" standalone="no"?>
<!DOCTYPE svg PUBLIC "-//W3C//DTD SVG 1.1//EN" "http://www.w3.org/Graphics/SVG/1.1/DTD/svg11.dtd">
<svg stroke-width="0.501" stroke-linejoin="bevel" fill-rule="evenodd" xmlns:xlink="http://www.w3.org/1999/xlink" xmlns="http://www.w3.org/2000/svg" version="1.1" overflow="visible" width="595.277pt" height="841.891pt" viewBox="0 0 595.277 841.891">
 <defs>
  <marker id="DefaultArrow2" markerUnits="strokeWidth" viewBox="0 0 1 1" markerWidth="1" markerHeight="1" overflow="visible" orient="auto">
   <!-- REF_ARROW_STRAIGHT (-2) -->
   <g transform="scale(0.0092592592)">
    <!-- 1/108 -->
    <path d="M -9 54 L -9 -54 L 117 0 z"/>
   </g>
  </marker>
  <marker id="DefaultArrow3" markerUnits="strokeWidth" viewBox="0 0 1 1" markerWidth="1" markerHeight="1" overflow="visible" orient="auto">
   <!-- REF_ARROW_ANGLED -->
   <g transform="scale(0.0092592592)">
    <path d="M -27 54 L -9 0 L -27 -54 L 135 0 z"/>
   </g>
  </marker>
  <marker id="DefaultArrow4" markerUnits="strokeWidth" viewBox="0 0 1 1" markerWidth="1" markerHeight="1" overflow="visible" orient="auto">
   <!-- REF_ARROW_ROUNDED -->
   <g transform="scale(0.0092592592)">
    <path d="M -9,0 L -9,-45 C -9,-51.708 2.808,-56.580 9,-54 L 117,-9 C 120.916,-7.369 126.000,-4.242 126,0 C 126,4.242 120.916,7.369 117,9 L 9,54 C 2.808,56.580 -9,51.708 -9,45 z"/>
   </g>
  </marker>
  <marker id="DefaultArrow5" markerUnits="strokeWidth" viewBox="0 0 1 1" markerWidth="1" markerHeight="1" overflow="visible" orient="auto">
   <!-- REF_ARROW_SPOT -->
   <g transform="scale(0.0092592592)">
    <path d="M -54, 0 C -54,29.807 -29.807,54 0,54 C 29.807,54 54,29.807 54,0 C 54,-29.807 29.807,-54 0,-54 C -29.807,-54 -54,-29.807 -54,0 z"/>
   </g>
  </marker>
  <marker id="DefaultArrow6" markerUnits="strokeWidth" viewBox="0 0 1 1" markerWidth="1" markerHeight="1" overflow="visible" orient="auto">
   <!-- REF_ARROW_DIAMOND -->
   <g transform="scale(0.0092592592)">
    <path d="M -63,0 L 0,63 L 63,0 L 0,-63 z"/>
   </g>
  </marker>
  <marker id="DefaultArrow7" markerUnits="strokeWidth" viewBox="0 0 1 1" markerWidth="1" markerHeight="1" overflow="visible" orient="auto">
   <!-- REF_ARROW_FEATHER -->
   <g transform="scale(0.0092592592)">
    <path d="M 18,-54 L 108,-54 L 63,0 L 108,54 L 18, 54 L -36,0 z"/>
   </g>
  </marker>
  <marker id="DefaultArrow8" markerUnits="strokeWidth" viewBox="0 0 1 1" markerWidth="1" markerHeight="1" overflow="visible" orient="auto">
   <!-- REF_ARROW_FEATHER2 -->
   <g transform="scale(0.0092592592)">
    <path d="M -36,0 L 18,-54 L 54,-54 L 18,-18 L 27,-18 L 63,-54 L 99,-54 L 63,-18 L 72,-18 L 108,-54 L 144,-54 L 90,0 L 144,54 L 108,54 L 72,18 L 63,18 L 99,54 L 63,54 L 27,18 L 18,18 L 54,54 L 18,54 z"/>
   </g>
  </marker>
  <marker id="DefaultArrow9" markerUnits="strokeWidth" viewBox="0 0 1 1" markerWidth="1" markerHeight="1" overflow="visible" orient="auto">
   <!-- REF_ARROW_HOLLOWDIAMOND -->
   <g transform="scale(0.0092592592)">
    <path d="M 0,45 L -45,0 L 0, -45 L 45, 0 z M 0, 63 L-63, 0 L 0, -63 L 63, 0 z"/>
   </g>
  </marker>
  <filter id="StainedFilter">
   <feBlend mode="multiply" in2="BackgroundImage" in="SourceGraphic" result="blend"/>
   <feComposite in="blend" in2="SourceAlpha" operator="in" result="comp"/>
  </filter>
  <filter id="BleachFilter">
   <feBlend mode="screen" in2="BackgroundImage" in="SourceGraphic" result="blend"/>
   <feComposite in="blend" in2="SourceAlpha" operator="in" result="comp"/>
  </filter>
  <filter id="InvertTransparencyBitmapFilter">
   <feComponentTransfer>
    <feFuncR type="gamma" amplitude="1.055" exponent=".416666666" offset="-0.055"/>
    <feFuncG type="gamma" amplitude="1.055" exponent=".416666666" offset="-0.055"/>
    <feFuncB type="gamma" amplitude="1.055" exponent=".416666666" offset="-0.055"/>
   </feComponentTransfer>
   <feComponentTransfer>
    <feFuncR type="linear" slope="-1" intercept="1"/>
    <feFuncG type="linear" slope="-1" intercept="1"/>
    <feFuncB type="linear" slope="-1" intercept="1"/>
    <feFuncA type="linear" slope="1" intercept="0"/>
   </feComponentTransfer>
   <feComponentTransfer>
    <feFuncR type="gamma" amplitude="1" exponent="2.4" offset="0"/>
    <feFuncG type="gamma" amplitude="1" exponent="2.4" offset="0"/>
    <feFuncB type="gamma" amplitude="1" exponent="2.4" offset="0"/>
   </feComponentTransfer>
  </filter>
 </defs>
 <g id="Document" fill="none" stroke="black" font-family="Times New Roman" font-size="16" transform="scale(1 -1)">
  <g id="Spread" transform="translate(0 -841.891)">
   <g id="Layer 1">
    <g id="Group">
     <path d="M 308.258,578.174 L 308.258,300.427 C 308.258,287.74 318.556,277.442 331.243,277.442 L 429.558,277.442 C 442.245,277.442 452.543,287.74 452.543,300.427 L 452.543,578.174 C 452.543,590.861 442.245,601.159 429.558,601.159 L 331.243,601.159 C 318.556,601.159 308.258,590.861 308.258,578.174 Z" stroke-width="2.25" fill="#ffffff" stroke="#000000" stroke-linecap="round" stroke-linejoin="miter" marker-start="none" marker-end="none" stroke-miterlimit="79.8403193612775"/>
     <path d="M 327.521,560.169 L 327.521,419.762 L 433.28,419.762 L 433.28,560.169 L 327.521,560.169 Z" stroke-width="0.75" stroke="#000000" stroke-linecap="round" fill="#ffffff" stroke-linejoin="miter" marker-start="none" marker-end="none" stroke-miterlimit="79.8403193612775"/>
     <path d="M 364.801,577.221 L 364.801,577.22 C 364.801,576.31 365.54,575.571 366.45,575.571 L 394.351,575.571 C 395.261,575.571 396,576.31 396,577.22 L 396,577.221 C 396,578.131 395.261,578.87 394.351,578.87 L 366.45,578.87 C 365.54,578.87 364.801,578.131 364.801,577.221 Z" stroke-linecap="round" fill="#ffffff" stroke="#000000" stroke-width="0.75" stroke-linejoin="miter" marker-start="none" marker-end="none" stroke-miterlimit="79.8403193612775"/>
     <path d="M 316.072,574.44 L 316.072,304.161 C 316.072,294.365 324.024,286.413 333.82,286.413 L 426.981,286.413 C 436.777,286.413 444.729,294.365 444.729,304.161 L 444.729,574.44 C 444.729,584.236 436.777,592.188 426.981,592.188 L 333.82,592.188 C 324.024,592.188 316.072,584.236 316.072,574.44 Z" stroke="#333333" stroke-width="0.718" stroke-linecap="round" stroke-linejoin="miter" marker-start="none" marker-end="none" stroke-miterlimit="79.8403193612775"/>
     <g id="Group_1" stroke-linejoin="round" stroke="#333333" stroke-width="0.75" fill="#ffffff" stroke-miterlimit="79.8403193612775">
      <path d="M 316.144,407.244 L 444.662,407.244" fill="none" stroke-linecap="square"/>
      <path d="M 316.138,387.294 L 358.27,387.294" fill="none" stroke-linecap="square"/>
      <path d="M 316.144,367.344 L 444.662,367.344" fill="none" stroke-linecap="square"/>
      <path d="M 316.144,347.394 L 444.662,347.394" fill="none" stroke-linecap="square"/>
      <path d="M 316.144,327.444 L 444.662,327.444" fill="none" stroke-linecap="square"/>
      <path d="M 316.144,307.494 L 444.662,307.494" fill="none" stroke-linecap="square"/>
      <path d="M 358.798,407.206 L 358.798,287.082" fill="none" stroke-linecap="round"/>
      <path d="M 402.006,407.206 L 402.006,287.082" fill="none" stroke-linecap="round"/>
      <path d="M 402.339,387.294 L 444.471,387.294" fill="none" stroke-linecap="square"/>
     </g>
     <g id="Group_2" stroke-linejoin="miter" stroke="#333333">
      <path d="M 364.058,399.115 L 364.058,376.392 C 364.058,373.92 366.067,371.911 368.539,371.911 L 392.262,371.911 C 394.734,371.911 396.743,373.92 396.743,376.392 L 396.743,399.115 C 396.743,401.588 394.734,403.596 392.262,403.596 L 368.539,403.596 C 366.067,403.596 364.058,401.588 364.058,399.115 Z" stroke-width="0.472" marker-start="none" marker-end="none" stroke-miterlimit="79.8403193612775"/>
      <path d="M 368.875,395.523 L 368.875,379.984 C 368.875,378.24 370.291,376.824 372.035,376.824 L 388.768,376.824 C 390.512,376.824 391.928,378.24 391.928,379.984 L 391.928,395.523 C 391.928,397.267 390.512,398.683 388.768,398.683 L 372.035,398.683 C 370.291,398.683 368.875,397.267 368.875,395.523 Z" stroke-width="0.416" marker-start="none" marker-end="none" stroke-miterlimit="79.8403193612775"/>
     </g>
    </g>
    <g id="Group_3">
     <path d="M 142.734,582.228 L 142.734,299.767 C 142.734,289.318 151.216,280.836 161.665,280.836 L 258.45,280.836 C 268.899,280.836 277.381,289.318 277.381,299.767 L 277.381,582.228 C 277.381,592.677 268.899,601.159 258.45,601.159 L 161.665,601.159 C 151.216,601.159 142.734,592.677 142.734,582.228 Z" stroke-width="2.25" fill="#ffffff" stroke="#000000" stroke-linecap="round" stroke-linejoin="miter" marker-start="none" marker-end="none" stroke-miterlimit="79.8403193612775"/>
     <path d="M 153.44,581.302 L 153.44,313.593 C 153.44,308.744 157.376,304.808 162.225,304.808 L 257.89,304.808 C 262.739,304.808 266.675,308.744 266.675,313.593 L 266.675,581.302 C 266.675,586.151 262.739,590.087 257.89,590.087 L 162.225,590.087 C 157.376,590.087 153.44,586.151 153.44,581.302 Z" stroke="#333333" stroke-width="0.75" fill="#ffffff" stroke-linecap="round" stroke-linejoin="miter" marker-start="none" marker-end="none" stroke-miterlimit="79.8403193612775"/>
     <path d="M 168.222,553.669 L 168.222,449.72 L 251.893,449.72 L 251.893,553.669 L 168.222,553.669 Z" stroke-width="0.75" fill="#ffffff" stroke-linecap="round" stroke-linejoin="miter" stroke="#000000" marker-start="none" marker-end="none" stroke-miterlimit="79.8403193612775"/>
     <path d="M 194.233,578.42 L 194.233,577.819 C 194.233,577.24 194.703,576.77 195.282,576.77 L 224.833,576.77 C 225.412,576.77 225.882,577.24 225.882,577.819 L 225.882,578.42 C 225.882,578.999 225.412,579.469 224.833,579.469 L 195.282,579.469 C 194.703,579.469 194.233,578.999 194.233,578.42 Z" stroke-linecap="round" stroke-linejoin="miter" stroke="#000000" stroke-width="0.32" marker-start="none" marker-end="none" stroke-miterlimit="79.8403193612775"/>
     <path d="M 153.925,424.97 L 266.191,424.97" fill="none" stroke="#333333" stroke-linecap="square" stroke-linejoin="round" stroke-width="0.75" stroke-miterlimit="79.8403193612775"/>
     <path d="M 153.92,405.02 L 190.724,405.02" fill="none" stroke="#333333" stroke-linecap="square" stroke-linejoin="round" stroke-width="0.75" stroke-miterlimit="79.8403193612775"/>
     <path d="M 153.925,385.07 L 266.191,385.07" fill="none" stroke="#333333" stroke-linecap="square" stroke-linejoin="round" stroke-width="0.75" stroke-miterlimit="79.8403193612775"/>
     <path d="M 153.925,365.12 L 266.191,365.12" fill="none" stroke="#333333" stroke-linecap="square" stroke-linejoin="round" stroke-width="0.75" stroke-miterlimit="79.8403193612775"/>
     <path d="M 153.925,345.17 L 266.191,345.17" fill="none" stroke="#333333" stroke-linecap="square" stroke-linejoin="round" stroke-width="0.75" stroke-miterlimit="79.8403193612775"/>
     <path d="M 153.925,325.22 L 266.191,325.22" fill="none" stroke="#333333" stroke-linecap="square" stroke-linejoin="round" stroke-width="0.75" stroke-miterlimit="79.8403193612775"/>
     <path d="M 191.185,424.932 L 191.185,304.808" fill="none" stroke="#333333" stroke-linecap="round" stroke-linejoin="round" stroke-width="0.75" stroke-miterlimit="79.8403193612775"/>
     <path d="M 228.93,424.932 L 228.93,304.808" fill="none" stroke="#333333" stroke-linecap="round" stroke-linejoin="round" stroke-width="0.75" stroke-miterlimit="79.8403193612775"/>
     <path d="M 229.22,405.02 L 266.024,405.02" fill="none" stroke="#333333" stroke-linecap="square" stroke-linejoin="round" stroke-width="0.75" stroke-miterlimit="79.8403193612775"/>
     <path d="M 195.193,415.393 L 195.193,394.726 C 195.193,392.477 197.02,390.651 199.269,390.651 L 220.845,390.651 C 223.093,390.651 224.92,392.477 224.92,394.726 L 224.92,415.393 C 224.92,417.642 223.093,419.468 220.845,419.468 L 199.269,419.468 C 197.02,419.468 195.193,417.642 195.193,415.393 Z" stroke="#333333" stroke-linejoin="miter" stroke-width="0.429" marker-start="none" marker-end="none" stroke-miterlimit="79.8403193612775"/>
     <path d="M 199.574,412.127 L 199.574,397.994 C 199.574,396.408 200.862,395.12 202.448,395.12 L 217.667,395.12 C 219.253,395.12 220.541,396.408 220.541,397.994 L 220.541,412.127 C 220.541,413.713 219.253,415.001 217.667,415.001 L 202.448,415.001 C 200.862,415.001 199.574,413.713 199.574,412.127 Z" stroke="#333333" stroke-linejoin="miter" stroke-width="0.378" marker-start="none" marker-end="none" stroke-miterlimit="79.8403193612775"/>
     <path d="M 207.678,295.368 L 207.678,295.367 C 207.678,294.519 208.367,293.83 209.215,293.83 L 212.216,293.83 C 213.064,293.83 213.753,294.519 213.753,295.367 L 213.753,295.368 C 213.753,296.216 213.064,296.905 212.216,296.905 L 209.215,296.905 C 208.367,296.905 207.678,296.216 207.678,295.368 Z" stroke-width="0.378" stroke="#000000" stroke-linejoin="miter" marker-start="none" marker-end="none" stroke-miterlimit="79.8403193612775"/>
    </g>
   </g>
  </g>
 </g>
</svg>
