<?xml version="1.0" standalone="no"?>
<!DOCTYPE svg PUBLIC "-//W3C//DTD SVG 1.1//EN" "http://www.w3.org/Graphics/SVG/1.1/DTD/svg11.dtd">
<svg stroke-width="0.501" stroke-linejoin="bevel" fill-rule="evenodd" xmlns:xlink="http://www.w3.org/1999/xlink" xmlns="http://www.w3.org/2000/svg" version="1.1" overflow="visible" width="1051.57pt" height="595.277pt" viewBox="0 0 1051.57 595.277">
 <defs>
  <marker id="DefaultArrow2" markerUnits="strokeWidth" viewBox="0 0 1 1" markerWidth="1" markerHeight="1" overflow="visible" orient="auto">
   <!-- REF_ARROW_STRAIGHT (-2) -->
   <g transform="scale(0.0092592592)">
    <!-- 1/108 -->
    <path d="M -9 54 L -9 -54 L 117 0 z"/>
   </g>
  </marker>
  <marker id="DefaultArrow3" markerUnits="strokeWidth" viewBox="0 0 1 1" markerWidth="1" markerHeight="1" overflow="visible" orient="auto">
   <!-- REF_ARROW_ANGLED -->
   <g transform="scale(0.0092592592)">
    <path d="M -27 54 L -9 0 L -27 -54 L 135 0 z"/>
   </g>
  </marker>
  <marker id="DefaultArrow4" markerUnits="strokeWidth" viewBox="0 0 1 1" markerWidth="1" markerHeight="1" overflow="visible" orient="auto">
   <!-- REF_ARROW_ROUNDED -->
   <g transform="scale(0.0092592592)">
    <path d="M -9,0 L -9,-45 C -9,-51.708 2.808,-56.580 9,-54 L 117,-9 C 120.916,-7.369 126.000,-4.242 126,0 C 126,4.242 120.916,7.369 117,9 L 9,54 C 2.808,56.580 -9,51.708 -9,45 z"/>
   </g>
  </marker>
  <marker id="DefaultArrow5" markerUnits="strokeWidth" viewBox="0 0 1 1" markerWidth="1" markerHeight="1" overflow="visible" orient="auto">
   <!-- REF_ARROW_SPOT -->
   <g transform="scale(0.0092592592)">
    <path d="M -54, 0 C -54,29.807 -29.807,54 0,54 C 29.807,54 54,29.807 54,0 C 54,-29.807 29.807,-54 0,-54 C -29.807,-54 -54,-29.807 -54,0 z"/>
   </g>
  </marker>
  <marker id="DefaultArrow6" markerUnits="strokeWidth" viewBox="0 0 1 1" markerWidth="1" markerHeight="1" overflow="visible" orient="auto">
   <!-- REF_ARROW_DIAMOND -->
   <g transform="scale(0.0092592592)">
    <path d="M -63,0 L 0,63 L 63,0 L 0,-63 z"/>
   </g>
  </marker>
  <marker id="DefaultArrow7" markerUnits="strokeWidth" viewBox="0 0 1 1" markerWidth="1" markerHeight="1" overflow="visible" orient="auto">
   <!-- REF_ARROW_FEATHER -->
   <g transform="scale(0.0092592592)">
    <path d="M 18,-54 L 108,-54 L 63,0 L 108,54 L 18, 54 L -36,0 z"/>
   </g>
  </marker>
  <marker id="DefaultArrow8" markerUnits="strokeWidth" viewBox="0 0 1 1" markerWidth="1" markerHeight="1" overflow="visible" orient="auto">
   <!-- REF_ARROW_FEATHER2 -->
   <g transform="scale(0.0092592592)">
    <path d="M -36,0 L 18,-54 L 54,-54 L 18,-18 L 27,-18 L 63,-54 L 99,-54 L 63,-18 L 72,-18 L 108,-54 L 144,-54 L 90,0 L 144,54 L 108,54 L 72,18 L 63,18 L 99,54 L 63,54 L 27,18 L 18,18 L 54,54 L 18,54 z"/>
   </g>
  </marker>
  <marker id="DefaultArrow9" markerUnits="strokeWidth" viewBox="0 0 1 1" markerWidth="1" markerHeight="1" overflow="visible" orient="auto">
   <!-- REF_ARROW_HOLLOWDIAMOND -->
   <g transform="scale(0.0092592592)">
    <path d="M 0,45 L -45,0 L 0, -45 L 45, 0 z M 0, 63 L-63, 0 L 0, -63 L 63, 0 z"/>
   </g>
  </marker>
  <filter id="StainedFilter">
   <feBlend mode="multiply" in2="BackgroundImage" in="SourceGraphic" result="blend"/>
   <feComposite in="blend" in2="SourceAlpha" operator="in" result="comp"/>
  </filter>
  <filter id="BleachFilter">
   <feBlend mode="screen" in2="BackgroundImage" in="SourceGraphic" result="blend"/>
   <feComposite in="blend" in2="SourceAlpha" operator="in" result="comp"/>
  </filter>
  <filter id="InvertTransparencyBitmapFilter">
   <feComponentTransfer>
    <feFuncR type="gamma" amplitude="1.055" exponent=".416666666" offset="-0.055"/>
    <feFuncG type="gamma" amplitude="1.055" exponent=".416666666" offset="-0.055"/>
    <feFuncB type="gamma" amplitude="1.055" exponent=".416666666" offset="-0.055"/>
   </feComponentTransfer>
   <feComponentTransfer>
    <feFuncR type="linear" slope="-1" intercept="1"/>
    <feFuncG type="linear" slope="-1" intercept="1"/>
    <feFuncB type="linear" slope="-1" intercept="1"/>
    <feFuncA type="linear" slope="1" intercept="0"/>
   </feComponentTransfer>
   <feComponentTransfer>
    <feFuncR type="gamma" amplitude="1" exponent="2.4" offset="0"/>
    <feFuncG type="gamma" amplitude="1" exponent="2.4" offset="0"/>
    <feFuncB type="gamma" amplitude="1" exponent="2.4" offset="0"/>
   </feComponentTransfer>
  </filter>
 </defs>
 <g id="Document" fill="none" stroke="black" font-family="Times New Roman" font-size="16" transform="scale(1 -1)">
  <g id="Spread" transform="translate(0 -595.277)">
   <g id="Phone 1">
    <g id="Group" stroke="#191919">
     <path d="M 40.73,533.719 L 40.73,120.358 C 40.73,109.368 49.65,100.448 60.64,100.448 L 261.363,100.448 C 272.353,100.448 281.273,109.368 281.273,120.358 L 281.273,533.719 C 281.273,544.709 272.353,553.629 261.363,553.629 L 60.64,553.629 C 49.65,553.629 40.73,544.709 40.73,533.719 Z" stroke-width="2.25" fill="#ffffff" stroke-linecap="round" stroke-linejoin="miter" marker-start="none" marker-end="none" stroke-miterlimit="79.8403193612775"/>
     <path d="M 60.809,528.367 L 60.809,145.328 L 261.196,145.328 L 261.196,528.367 L 60.809,528.367 Z" stroke-width="0.75" fill="#ffffff" stroke-linecap="round" stroke-linejoin="miter" marker-start="none" marker-end="none" stroke-miterlimit="79.8403193612775"/>
     <path d="M 183.463,552.959 C 183.463,548.485 179.243,545.203 174.403,545.203 L 147.603,545.203 C 142.787,545.203 138.542,548.506 138.542,552.959" fill="none" stroke-width="0.75" stroke-miterlimit="79.8403193612775"/>
    </g>
    <g id="Group_1" stroke="#191919">
     <path d="M 325.6,535.843 L 325.6,201.772 C 325.6,191.883 333.626,183.857 343.515,183.857 L 524.87,183.857 C 534.759,183.857 542.785,191.883 542.785,201.772 L 542.785,535.843 C 542.785,545.732 534.759,553.758 524.87,553.758 L 343.515,553.758 C 333.626,553.758 325.6,545.732 325.6,535.843 Z" stroke-width="2.25" fill="#ffffff" stroke-linecap="round" stroke-linejoin="miter" marker-start="none" marker-end="none" stroke-miterlimit="79.8403193612775"/>
     <path d="M 456.655,552.959 C 456.655,548.485 452.435,545.203 447.595,545.203 L 420.795,545.203 C 415.979,545.203 411.734,548.506 411.734,552.959" fill="none" stroke-width="0.75" stroke-miterlimit="79.8403193612775"/>
     <path d="M 344.225,528.367 L 344.225,216.908 L 524.162,216.908 L 524.162,528.367 L 344.225,528.367 Z" stroke-width="0.75" fill="#ffffff" stroke-linecap="round" stroke-linejoin="miter" marker-start="none" marker-end="none" stroke-miterlimit="79.8403193612775"/>
    </g>
    <g id="Group_2" stroke="#191919">
     <path d="M 581.946,538.389 L 581.946,233.068 C 581.946,224.499 588.902,217.543 597.471,217.543 L 754.634,217.543 C 763.203,217.543 770.159,224.499 770.159,233.068 L 770.159,538.389 C 770.159,546.958 763.203,553.914 754.634,553.914 L 597.471,553.914 C 588.902,553.914 581.946,546.958 581.946,538.389 Z" stroke-width="2.25" fill="#ffffff" stroke-linecap="round" stroke-linejoin="miter" marker-start="none" marker-end="none" stroke-miterlimit="79.8403193612775"/>
     <path d="M 703.722,552.959 C 703.722,548.485 699.502,545.203 694.662,545.203 L 667.862,545.203 C 663.047,545.203 658.801,548.506 658.801,552.959" fill="none" stroke-width="0.75" stroke-miterlimit="79.8403193612775"/>
     <path d="M 596.146,528.367 L 596.146,247.496 L 755.957,247.496 L 755.957,528.367 L 596.146,528.367 Z" stroke-width="0.653" fill="#ffffff" stroke-linecap="round" stroke-linejoin="miter" marker-start="none" marker-end="none" stroke-miterlimit="79.8403193612775"/>
    </g>
    <g id="Group_3" stroke="#191919">
     <path d="M 809.895,539.118 L 809.895,263.089 C 809.895,254.895 816.546,248.244 824.74,248.244 L 975.023,248.244 C 983.217,248.244 989.868,254.895 989.868,263.089 L 989.868,539.118 C 989.868,547.312 983.217,553.963 975.023,553.963 L 824.74,553.963 C 816.546,553.963 809.895,547.312 809.895,539.118 Z" stroke-width="2.151" fill="#ffffff" stroke-linecap="round" stroke-linejoin="miter" marker-start="none" marker-end="none" stroke-miterlimit="79.8403193612775"/>
     <path d="M 922.343,552.959 C 922.343,548.485 918.123,545.203 913.283,545.203 L 886.483,545.203 C 881.667,545.203 877.422,548.506 877.422,552.959" fill="none" stroke-width="0.75" stroke-miterlimit="79.8403193612775"/>
     <path d="M 824.601,528.367 L 824.601,283.498 L 975.162,283.498 L 975.162,528.367 L 824.601,528.367 Z" stroke-width="0.653" fill="#ffffff" stroke-linecap="round" stroke-linejoin="miter" marker-start="none" marker-end="none" stroke-miterlimit="79.8403193612775"/>
    </g>
    <text xml:space="preserve" transform="translate(113.105 68.877) scale(1 -1)" font-size="8" font-family="Arial" stroke-linejoin="round" stroke-linecap="round" stroke="none" stroke-width="0.375" fill="#000000" stroke-miterlimit="79.8403193612775"><tspan x="3.842" y="0">6 inch smartphone</tspan></text>
    <text xml:space="preserve" transform="translate(398.105 157.227) scale(1 -1)" font-size="8" font-family="Arial" stroke-linejoin="round" stroke-linecap="round" stroke="none" stroke-width="0.375" fill="#000000" stroke-miterlimit="79.8403193612775"><tspan x="3.842" y="0">5 inch smartphone</tspan></text>
    <text xml:space="preserve" transform="translate(643.205 191.427) scale(1 -1)" font-size="8" font-family="Arial" stroke-linejoin="round" stroke-linecap="round" stroke="none" stroke-width="0.375" fill="#000000" stroke-miterlimit="79.8403193612775"><tspan x="0.506" y="0">4.5 inch smartphone</tspan></text>
    <text xml:space="preserve" transform="translate(868.355 222.777) scale(1 -1)" font-size="8" font-family="Arial" stroke-linejoin="round" stroke-linecap="round" stroke="none" stroke-width="0.375" fill="#000000" stroke-miterlimit="79.8403193612775"><tspan x="3.842" y="0">4 inch smartphone</tspan></text>
   </g>
   <g id="Dots">
    <path d="M 302.527,568.133 C 302.527,564.448 307.167,561.074 313.368,561.074 L 349.807,561.074" fill="none" fill-rule="evenodd" stroke="none" stroke-width="0.5" stroke-miterlimit="79.8403193612775"/>
   </g>
  </g>
 </g>
</svg>
