<?xml version="1.0" standalone="no"?>
<!DOCTYPE svg PUBLIC "-//W3C//DTD SVG 1.1//EN" "http://www.w3.org/Graphics/SVG/1.1/DTD/svg11.dtd">
<svg stroke-width="0.501" stroke-linejoin="bevel" fill-rule="evenodd" xmlns:xlink="http://www.w3.org/1999/xlink" xmlns="http://www.w3.org/2000/svg" version="1.1" overflow="visible" width="841.891pt" height="595.277pt" viewBox="0 0 841.891 595.277">
 <defs>
  <marker id="DefaultArrow2" markerUnits="strokeWidth" viewBox="0 0 1 1" markerWidth="1" markerHeight="1" overflow="visible" orient="auto">
   <!-- REF_ARROW_STRAIGHT (-2) -->
   <g transform="scale(0.0092592592)">
    <!-- 1/108 -->
    <path d="M -9 54 L -9 -54 L 117 0 z"/>
   </g>
  </marker>
  <marker id="DefaultArrow3" markerUnits="strokeWidth" viewBox="0 0 1 1" markerWidth="1" markerHeight="1" overflow="visible" orient="auto">
   <!-- REF_ARROW_ANGLED -->
   <g transform="scale(0.0092592592)">
    <path d="M -27 54 L -9 0 L -27 -54 L 135 0 z"/>
   </g>
  </marker>
  <marker id="DefaultArrow4" markerUnits="strokeWidth" viewBox="0 0 1 1" markerWidth="1" markerHeight="1" overflow="visible" orient="auto">
   <!-- REF_ARROW_ROUNDED -->
   <g transform="scale(0.0092592592)">
    <path d="M -9,0 L -9,-45 C -9,-51.708 2.808,-56.580 9,-54 L 117,-9 C 120.916,-7.369 126.000,-4.242 126,0 C 126,4.242 120.916,7.369 117,9 L 9,54 C 2.808,56.580 -9,51.708 -9,45 z"/>
   </g>
  </marker>
  <marker id="DefaultArrow5" markerUnits="strokeWidth" viewBox="0 0 1 1" markerWidth="1" markerHeight="1" overflow="visible" orient="auto">
   <!-- REF_ARROW_SPOT -->
   <g transform="scale(0.0092592592)">
    <path d="M -54, 0 C -54,29.807 -29.807,54 0,54 C 29.807,54 54,29.807 54,0 C 54,-29.807 29.807,-54 0,-54 C -29.807,-54 -54,-29.807 -54,0 z"/>
   </g>
  </marker>
  <marker id="DefaultArrow6" markerUnits="strokeWidth" viewBox="0 0 1 1" markerWidth="1" markerHeight="1" overflow="visible" orient="auto">
   <!-- REF_ARROW_DIAMOND -->
   <g transform="scale(0.0092592592)">
    <path d="M -63,0 L 0,63 L 63,0 L 0,-63 z"/>
   </g>
  </marker>
  <marker id="DefaultArrow7" markerUnits="strokeWidth" viewBox="0 0 1 1" markerWidth="1" markerHeight="1" overflow="visible" orient="auto">
   <!-- REF_ARROW_FEATHER -->
   <g transform="scale(0.0092592592)">
    <path d="M 18,-54 L 108,-54 L 63,0 L 108,54 L 18, 54 L -36,0 z"/>
   </g>
  </marker>
  <marker id="DefaultArrow8" markerUnits="strokeWidth" viewBox="0 0 1 1" markerWidth="1" markerHeight="1" overflow="visible" orient="auto">
   <!-- REF_ARROW_FEATHER2 -->
   <g transform="scale(0.0092592592)">
    <path d="M -36,0 L 18,-54 L 54,-54 L 18,-18 L 27,-18 L 63,-54 L 99,-54 L 63,-18 L 72,-18 L 108,-54 L 144,-54 L 90,0 L 144,54 L 108,54 L 72,18 L 63,18 L 99,54 L 63,54 L 27,18 L 18,18 L 54,54 L 18,54 z"/>
   </g>
  </marker>
  <marker id="DefaultArrow9" markerUnits="strokeWidth" viewBox="0 0 1 1" markerWidth="1" markerHeight="1" overflow="visible" orient="auto">
   <!-- REF_ARROW_HOLLOWDIAMOND -->
   <g transform="scale(0.0092592592)">
    <path d="M 0,45 L -45,0 L 0, -45 L 45, 0 z M 0, 63 L-63, 0 L 0, -63 L 63, 0 z"/>
   </g>
  </marker>
  <filter id="StainedFilter">
   <feBlend mode="multiply" in2="BackgroundImage" in="SourceGraphic" result="blend"/>
   <feComposite in="blend" in2="SourceAlpha" operator="in" result="comp"/>
  </filter>
  <filter id="BleachFilter">
   <feBlend mode="screen" in2="BackgroundImage" in="SourceGraphic" result="blend"/>
   <feComposite in="blend" in2="SourceAlpha" operator="in" result="comp"/>
  </filter>
  <filter id="InvertTransparencyBitmapFilter">
   <feComponentTransfer>
    <feFuncR type="gamma" amplitude="1.055" exponent=".416666666" offset="-0.055"/>
    <feFuncG type="gamma" amplitude="1.055" exponent=".416666666" offset="-0.055"/>
    <feFuncB type="gamma" amplitude="1.055" exponent=".416666666" offset="-0.055"/>
   </feComponentTransfer>
   <feComponentTransfer>
    <feFuncR type="linear" slope="-1" intercept="1"/>
    <feFuncG type="linear" slope="-1" intercept="1"/>
    <feFuncB type="linear" slope="-1" intercept="1"/>
    <feFuncA type="linear" slope="1" intercept="0"/>
   </feComponentTransfer>
   <feComponentTransfer>
    <feFuncR type="gamma" amplitude="1" exponent="2.4" offset="0"/>
    <feFuncG type="gamma" amplitude="1" exponent="2.4" offset="0"/>
    <feFuncB type="gamma" amplitude="1" exponent="2.4" offset="0"/>
   </feComponentTransfer>
  </filter>
 </defs>
 <g id="Document" fill="none" stroke="black" font-family="Times New Roman" font-size="16" transform="scale(1 -1)">
  <g id="Spread" transform="translate(0 -595.277)">
   <g id="Phone">
    <path d="M 449.688,503.957 L 449.688,503.278 C 449.688,502.824 450.057,502.455 450.511,502.455 L 475.864,502.455 C 476.318,502.455 476.687,502.824 476.687,503.278 L 476.687,503.957 C 476.687,504.411 476.318,504.78 475.864,504.78 L 450.511,504.78 C 450.057,504.78 449.688,504.411 449.688,503.957 Z" stroke-linejoin="miter" stroke="#000000" marker-start="none" marker-end="none"/>
    <path d="M 337.374,473.02 L 337.374,458.921 C 337.374,458.426 337.777,458.023 338.272,458.023 L 341.125,458.023 C 341.62,458.023 342.023,458.426 342.023,458.921 L 342.023,473.02 C 342.023,473.515 341.62,473.918 341.125,473.918 L 338.272,473.918 C 337.777,473.918 337.374,473.515 337.374,473.02 Z" stroke-linejoin="miter" stroke="#000000" stroke-width="0.75" marker-start="none" marker-end="none" stroke-miterlimit="79.8403193612775"/>
    <path d="M 337.374,438.367 L 337.374,428.324 C 337.374,427.991 337.645,427.72 337.978,427.72 L 339.469,427.72 C 339.802,427.72 340.073,427.991 340.073,428.324 L 340.073,438.367 C 340.073,438.7 339.802,438.971 339.469,438.971 L 337.978,438.971 C 337.645,438.971 337.374,438.7 337.374,438.367 Z" stroke-linejoin="miter" stroke="#000000" stroke-width="0.75" marker-start="none" marker-end="none" stroke-miterlimit="79.8403193612775"/>
    <path d="M 337.374,409.417 L 337.374,399.374 C 337.374,399.041 337.645,398.77 337.978,398.77 L 339.469,398.77 C 339.802,398.77 340.073,399.041 340.073,399.374 L 340.073,409.417 C 340.073,409.75 339.802,410.021 339.469,410.021 L 337.978,410.021 C 337.645,410.021 337.374,409.75 337.374,409.417 Z" stroke-linejoin="miter" stroke="#000000" stroke-width="0.75" marker-start="none" marker-end="none" stroke-miterlimit="79.8403193612775"/>
    <path d="M 339.6,478.421 L 339.6,201.29 C 339.6,188.199 350.226,177.573 363.317,177.573 L 480.18,177.573 C 493.271,177.573 503.897,188.199 503.897,201.29 L 503.897,478.421 C 503.897,491.512 493.271,502.138 480.18,502.138 L 363.317,502.138 C 350.226,502.138 339.6,491.512 339.6,478.421 Z" stroke-linejoin="miter" stroke="#000000" fill="#ffffff" stroke-width="1.989" stroke-linecap="round" marker-start="none" marker-end="none" stroke-miterlimit="79.8403193612775"/>
    <path d="M 351.518,445.922 L 351.518,233.815 L 492.967,233.815 L 492.967,445.922 L 351.518,445.922 Z" stroke-linejoin="miter" stroke="#000000" stroke-width="0.75" stroke-linecap="round" marker-start="none" marker-end="none" stroke-miterlimit="79.8403193612775"/>
    <path d="M 408.542,214.381 C 413.322,221.67 423.119,223.708 430.408,218.927 C 437.697,214.147 439.735,204.35 434.954,197.061 C 430.174,189.772 420.377,187.734 413.088,192.515 C 405.799,197.295 403.761,207.092 408.542,214.381 Z" stroke-linejoin="miter" stroke="#000000" stroke-width="0.735" marker-start="none" marker-end="none" stroke-miterlimit="79.8403193612775"/>
    <path d="M 416.742,208.4 L 416.742,203.043 C 416.742,201.758 417.785,200.715 419.07,200.715 L 424.427,200.715 C 425.712,200.715 426.755,201.758 426.755,203.043 L 426.755,208.4 C 426.755,209.685 425.712,210.728 424.427,210.728 L 419.07,210.728 C 417.785,210.728 416.742,209.685 416.742,208.4 Z" stroke-linejoin="miter" stroke="#000000" stroke-width="1.125" marker-start="none" marker-end="none" stroke-miterlimit="79.8403193612775"/>
    <path d="M 390.99,477.012 C 392.613,478.445 395.095,478.29 396.528,476.666 C 397.961,475.043 397.806,472.561 396.182,471.128 C 394.559,469.695 392.077,469.85 390.644,471.474 C 389.211,473.097 389.366,475.579 390.99,477.012 Z" stroke-linejoin="miter" stroke="#000000" marker-start="none" marker-end="none"/>
    <path d="M 406.163,474.18 L 406.163,473.767 C 406.163,471.775 407.78,470.158 409.772,470.158 L 433.725,470.158 C 435.717,470.158 437.334,471.775 437.334,473.767 L 437.334,474.18 C 437.334,476.172 435.717,477.789 433.725,477.789 L 409.772,477.789 C 407.78,477.789 406.163,476.172 406.163,474.18 Z" stroke-linejoin="miter" stroke="#000000" marker-start="none" marker-end="none"/>
   </g>
  </g>
 </g>
</svg>
