<?xml version="1.0" standalone="no"?>
<!DOCTYPE svg PUBLIC "-//W3C//DTD SVG 1.1//EN" "http://www.w3.org/Graphics/SVG/1.1/DTD/svg11.dtd">
<svg stroke-width="0.501" stroke-linejoin="bevel" fill-rule="evenodd" xmlns:xlink="http://www.w3.org/1999/xlink" xmlns="http://www.w3.org/2000/svg" version="1.1" overflow="visible" width="595.277pt" height="841.891pt" viewBox="0 0 595.277 841.891">
 <defs>
  <marker id="DefaultArrow2" markerUnits="strokeWidth" viewBox="0 0 1 1" markerWidth="1" markerHeight="1" overflow="visible" orient="auto">
   <!-- REF_ARROW_STRAIGHT (-2) -->
   <g transform="scale(0.0092592592)">
    <!-- 1/108 -->
    <path d="M -9 54 L -9 -54 L 117 0 z"/>
   </g>
  </marker>
  <marker id="DefaultArrow3" markerUnits="strokeWidth" viewBox="0 0 1 1" markerWidth="1" markerHeight="1" overflow="visible" orient="auto">
   <!-- REF_ARROW_ANGLED -->
   <g transform="scale(0.0092592592)">
    <path d="M -27 54 L -9 0 L -27 -54 L 135 0 z"/>
   </g>
  </marker>
  <marker id="DefaultArrow4" markerUnits="strokeWidth" viewBox="0 0 1 1" markerWidth="1" markerHeight="1" overflow="visible" orient="auto">
   <!-- REF_ARROW_ROUNDED -->
   <g transform="scale(0.0092592592)">
    <path d="M -9,0 L -9,-45 C -9,-51.708 2.808,-56.580 9,-54 L 117,-9 C 120.916,-7.369 126.000,-4.242 126,0 C 126,4.242 120.916,7.369 117,9 L 9,54 C 2.808,56.580 -9,51.708 -9,45 z"/>
   </g>
  </marker>
  <marker id="DefaultArrow5" markerUnits="strokeWidth" viewBox="0 0 1 1" markerWidth="1" markerHeight="1" overflow="visible" orient="auto">
   <!-- REF_ARROW_SPOT -->
   <g transform="scale(0.0092592592)">
    <path d="M -54, 0 C -54,29.807 -29.807,54 0,54 C 29.807,54 54,29.807 54,0 C 54,-29.807 29.807,-54 0,-54 C -29.807,-54 -54,-29.807 -54,0 z"/>
   </g>
  </marker>
  <marker id="DefaultArrow6" markerUnits="strokeWidth" viewBox="0 0 1 1" markerWidth="1" markerHeight="1" overflow="visible" orient="auto">
   <!-- REF_ARROW_DIAMOND -->
   <g transform="scale(0.0092592592)">
    <path d="M -63,0 L 0,63 L 63,0 L 0,-63 z"/>
   </g>
  </marker>
  <marker id="DefaultArrow7" markerUnits="strokeWidth" viewBox="0 0 1 1" markerWidth="1" markerHeight="1" overflow="visible" orient="auto">
   <!-- REF_ARROW_FEATHER -->
   <g transform="scale(0.0092592592)">
    <path d="M 18,-54 L 108,-54 L 63,0 L 108,54 L 18, 54 L -36,0 z"/>
   </g>
  </marker>
  <marker id="DefaultArrow8" markerUnits="strokeWidth" viewBox="0 0 1 1" markerWidth="1" markerHeight="1" overflow="visible" orient="auto">
   <!-- REF_ARROW_FEATHER2 -->
   <g transform="scale(0.0092592592)">
    <path d="M -36,0 L 18,-54 L 54,-54 L 18,-18 L 27,-18 L 63,-54 L 99,-54 L 63,-18 L 72,-18 L 108,-54 L 144,-54 L 90,0 L 144,54 L 108,54 L 72,18 L 63,18 L 99,54 L 63,54 L 27,18 L 18,18 L 54,54 L 18,54 z"/>
   </g>
  </marker>
  <marker id="DefaultArrow9" markerUnits="strokeWidth" viewBox="0 0 1 1" markerWidth="1" markerHeight="1" overflow="visible" orient="auto">
   <!-- REF_ARROW_HOLLOWDIAMOND -->
   <g transform="scale(0.0092592592)">
    <path d="M 0,45 L -45,0 L 0, -45 L 45, 0 z M 0, 63 L-63, 0 L 0, -63 L 63, 0 z"/>
   </g>
  </marker>
  <filter id="StainedFilter">
   <feBlend mode="multiply" in2="BackgroundImage" in="SourceGraphic" result="blend"/>
   <feComposite in="blend" in2="SourceAlpha" operator="in" result="comp"/>
  </filter>
  <filter id="BleachFilter">
   <feBlend mode="screen" in2="BackgroundImage" in="SourceGraphic" result="blend"/>
   <feComposite in="blend" in2="SourceAlpha" operator="in" result="comp"/>
  </filter>
  <filter id="InvertTransparencyBitmapFilter">
   <feComponentTransfer>
    <feFuncR type="gamma" amplitude="1.055" exponent=".416666666" offset="-0.055"/>
    <feFuncG type="gamma" amplitude="1.055" exponent=".416666666" offset="-0.055"/>
    <feFuncB type="gamma" amplitude="1.055" exponent=".416666666" offset="-0.055"/>
   </feComponentTransfer>
   <feComponentTransfer>
    <feFuncR type="linear" slope="-1" intercept="1"/>
    <feFuncG type="linear" slope="-1" intercept="1"/>
    <feFuncB type="linear" slope="-1" intercept="1"/>
    <feFuncA type="linear" slope="1" intercept="0"/>
   </feComponentTransfer>
   <feComponentTransfer>
    <feFuncR type="gamma" amplitude="1" exponent="2.4" offset="0"/>
    <feFuncG type="gamma" amplitude="1" exponent="2.4" offset="0"/>
    <feFuncB type="gamma" amplitude="1" exponent="2.4" offset="0"/>
   </feComponentTransfer>
  </filter>
 </defs>
 <g id="Document" fill="none" stroke="black" font-family="Times New Roman" font-size="16" transform="scale(1 -1)">
  <g id="Spread" transform="translate(0 -841.891)">
   <g id="Layer 1">
    <path d="M 404.851,573.18 L 404.851,545.737 C 404.851,545.404 405.122,545.133 405.455,545.133 L 406.946,545.133 C 407.279,545.133 407.55,545.404 407.55,545.737 L 407.55,573.18 C 407.55,573.513 407.279,573.784 406.946,573.784 L 405.455,573.784 C 405.122,573.784 404.851,573.513 404.851,573.18 Z" stroke-linejoin="miter" stroke="#000000" stroke-width="0.75" marker-start="none" marker-end="none" stroke-miterlimit="79.8403193612775"/>
    <path d="M 187.726,572.355 L 187.726,546.112 C 187.726,545.779 187.997,545.508 188.33,545.508 L 189.821,545.508 C 190.154,545.508 190.425,545.779 190.425,546.112 L 190.425,572.355 C 190.425,572.688 190.154,572.959 189.821,572.959 L 188.33,572.959 C 187.997,572.959 187.726,572.688 187.726,572.355 Z" stroke-linejoin="miter" stroke="#000000" stroke-width="0.75" marker-start="none" marker-end="none" stroke-miterlimit="79.8403193612775"/>
    <path d="M 187.726,537.105 L 187.726,510.862 C 187.726,510.529 187.997,510.258 188.33,510.258 L 189.821,510.258 C 190.154,510.258 190.425,510.529 190.425,510.862 L 190.425,537.105 C 190.425,537.438 190.154,537.709 189.821,537.709 L 188.33,537.709 C 187.997,537.709 187.726,537.438 187.726,537.105 Z" stroke-linejoin="miter" stroke="#000000" stroke-width="0.75" marker-start="none" marker-end="none" stroke-miterlimit="79.8403193612775"/>
    <path d="M 187.726,606.409 L 187.726,592.31 C 187.726,591.815 188.129,591.412 188.624,591.412 L 191.477,591.412 C 191.972,591.412 192.375,591.815 192.375,592.31 L 192.375,606.409 C 192.375,606.904 191.972,607.307 191.477,607.307 L 188.624,607.307 C 188.129,607.307 187.726,606.904 187.726,606.409 Z" stroke-linejoin="miter" stroke="#000000" stroke-width="0.75" marker-start="none" marker-end="none" stroke-miterlimit="79.8403193612775"/>
    <path d="M 189.911,627.159 L 189.911,243.629 C 189.911,226.422 203.878,212.455 221.085,212.455 L 373.883,212.455 C 391.091,212.455 405.058,226.422 405.058,243.629 L 405.058,627.159 C 405.058,644.367 391.091,658.334 373.883,658.334 L 221.085,658.334 C 203.878,658.334 189.911,644.367 189.911,627.159 Z" fill="#ffffff" stroke-linejoin="miter" stroke="#000000" stroke-width="2.277" stroke-linecap="round" marker-start="none" marker-end="none" stroke-miterlimit="79.8403193612775"/>
    <path d="M 295.656,646.834 C 296.695,647.751 298.284,647.652 299.202,646.612 C 300.119,645.573 300.02,643.984 298.98,643.066 C 297.941,642.149 296.352,642.248 295.434,643.288 C 294.517,644.327 294.616,645.916 295.656,646.834 Z" stroke-linejoin="miter" stroke="#000000" marker-start="none" marker-end="none"/>
    <path d="M 282.053,632.376 L 282.053,632.375 C 282.053,631.589 282.826,630.951 283.778,630.951 L 310.627,630.951 C 311.579,630.951 312.352,631.589 312.352,632.375 L 312.352,632.376 C 312.352,633.162 311.579,633.8 310.627,633.8 L 283.778,633.8 C 282.826,633.8 282.053,633.162 282.053,632.376 Z" stroke-linejoin="miter" stroke="#000000" marker-start="none" marker-end="none"/>
    <path d="M 264.756,634.748 C 266.066,635.903 268.067,635.778 269.223,634.469 C 270.378,633.159 270.253,631.158 268.944,630.002 C 267.634,628.847 265.633,628.972 264.477,630.281 C 263.322,631.591 263.447,633.592 264.756,634.748 Z" stroke-linejoin="miter" stroke="#000000" marker-start="none" marker-end="none"/>
    <path d="M 285.147,250.247 C 289.614,257.057 298.768,258.961 305.579,254.495 C 312.389,250.028 314.293,240.874 309.827,234.063 C 305.36,227.253 296.206,225.349 289.395,229.815 C 282.585,234.282 280.681,243.436 285.147,250.247 Z" stroke-linejoin="miter" stroke="#000000" stroke-width="0.687" marker-start="none" marker-end="none" stroke-miterlimit="79.8403193612775"/>
    <path d="M 200.742,608.71 L 200.742,266.075 C 200.742,265.557 201.163,265.136 201.681,265.136 L 393.292,265.136 C 393.81,265.136 394.231,265.557 394.231,266.075 L 394.231,608.71 C 394.231,609.228 393.81,609.649 393.292,609.649 L 201.681,609.649 C 201.163,609.649 200.742,609.228 200.742,608.71 Z" stroke-linecap="round" stroke-linejoin="miter" stroke="#000000" stroke-width="0.75" marker-start="none" marker-end="none" stroke-miterlimit="79.8403193612775"/>
   </g>
  </g>
 </g>
</svg>
