<?xml version="1.0" standalone="no"?>
<!DOCTYPE svg PUBLIC "-//W3C//DTD SVG 1.1//EN" "http://www.w3.org/Graphics/SVG/1.1/DTD/svg11.dtd">
<svg stroke-width="0.501" stroke-linejoin="bevel" fill-rule="evenodd" xmlns:xlink="http://www.w3.org/1999/xlink" xmlns="http://www.w3.org/2000/svg" version="1.1" overflow="visible" width="595.277pt" height="841.891pt" viewBox="0 0 595.277 841.891">
 <defs>
  <marker id="DefaultArrow2" markerUnits="strokeWidth" viewBox="0 0 1 1" markerWidth="1" markerHeight="1" overflow="visible" orient="auto">
   <!-- REF_ARROW_STRAIGHT (-2) -->
   <g transform="scale(0.0092592592)">
    <!-- 1/108 -->
    <path d="M -9 54 L -9 -54 L 117 0 z"/>
   </g>
  </marker>
  <marker id="DefaultArrow3" markerUnits="strokeWidth" viewBox="0 0 1 1" markerWidth="1" markerHeight="1" overflow="visible" orient="auto">
   <!-- REF_ARROW_ANGLED -->
   <g transform="scale(0.0092592592)">
    <path d="M -27 54 L -9 0 L -27 -54 L 135 0 z"/>
   </g>
  </marker>
  <marker id="DefaultArrow4" markerUnits="strokeWidth" viewBox="0 0 1 1" markerWidth="1" markerHeight="1" overflow="visible" orient="auto">
   <!-- REF_ARROW_ROUNDED -->
   <g transform="scale(0.0092592592)">
    <path d="M -9,0 L -9,-45 C -9,-51.708 2.808,-56.580 9,-54 L 117,-9 C 120.916,-7.369 126.000,-4.242 126,0 C 126,4.242 120.916,7.369 117,9 L 9,54 C 2.808,56.580 -9,51.708 -9,45 z"/>
   </g>
  </marker>
  <marker id="DefaultArrow5" markerUnits="strokeWidth" viewBox="0 0 1 1" markerWidth="1" markerHeight="1" overflow="visible" orient="auto">
   <!-- REF_ARROW_SPOT -->
   <g transform="scale(0.0092592592)">
    <path d="M -54, 0 C -54,29.807 -29.807,54 0,54 C 29.807,54 54,29.807 54,0 C 54,-29.807 29.807,-54 0,-54 C -29.807,-54 -54,-29.807 -54,0 z"/>
   </g>
  </marker>
  <marker id="DefaultArrow6" markerUnits="strokeWidth" viewBox="0 0 1 1" markerWidth="1" markerHeight="1" overflow="visible" orient="auto">
   <!-- REF_ARROW_DIAMOND -->
   <g transform="scale(0.0092592592)">
    <path d="M -63,0 L 0,63 L 63,0 L 0,-63 z"/>
   </g>
  </marker>
  <marker id="DefaultArrow7" markerUnits="strokeWidth" viewBox="0 0 1 1" markerWidth="1" markerHeight="1" overflow="visible" orient="auto">
   <!-- REF_ARROW_FEATHER -->
   <g transform="scale(0.0092592592)">
    <path d="M 18,-54 L 108,-54 L 63,0 L 108,54 L 18, 54 L -36,0 z"/>
   </g>
  </marker>
  <marker id="DefaultArrow8" markerUnits="strokeWidth" viewBox="0 0 1 1" markerWidth="1" markerHeight="1" overflow="visible" orient="auto">
   <!-- REF_ARROW_FEATHER2 -->
   <g transform="scale(0.0092592592)">
    <path d="M -36,0 L 18,-54 L 54,-54 L 18,-18 L 27,-18 L 63,-54 L 99,-54 L 63,-18 L 72,-18 L 108,-54 L 144,-54 L 90,0 L 144,54 L 108,54 L 72,18 L 63,18 L 99,54 L 63,54 L 27,18 L 18,18 L 54,54 L 18,54 z"/>
   </g>
  </marker>
  <marker id="DefaultArrow9" markerUnits="strokeWidth" viewBox="0 0 1 1" markerWidth="1" markerHeight="1" overflow="visible" orient="auto">
   <!-- REF_ARROW_HOLLOWDIAMOND -->
   <g transform="scale(0.0092592592)">
    <path d="M 0,45 L -45,0 L 0, -45 L 45, 0 z M 0, 63 L-63, 0 L 0, -63 L 63, 0 z"/>
   </g>
  </marker>
  <filter id="StainedFilter">
   <feBlend mode="multiply" in2="BackgroundImage" in="SourceGraphic" result="blend"/>
   <feComposite in="blend" in2="SourceAlpha" operator="in" result="comp"/>
  </filter>
  <filter id="BleachFilter">
   <feBlend mode="screen" in2="BackgroundImage" in="SourceGraphic" result="blend"/>
   <feComposite in="blend" in2="SourceAlpha" operator="in" result="comp"/>
  </filter>
  <filter id="InvertTransparencyBitmapFilter">
   <feComponentTransfer>
    <feFuncR type="gamma" amplitude="1.055" exponent=".416666666" offset="-0.055"/>
    <feFuncG type="gamma" amplitude="1.055" exponent=".416666666" offset="-0.055"/>
    <feFuncB type="gamma" amplitude="1.055" exponent=".416666666" offset="-0.055"/>
   </feComponentTransfer>
   <feComponentTransfer>
    <feFuncR type="linear" slope="-1" intercept="1"/>
    <feFuncG type="linear" slope="-1" intercept="1"/>
    <feFuncB type="linear" slope="-1" intercept="1"/>
    <feFuncA type="linear" slope="1" intercept="0"/>
   </feComponentTransfer>
   <feComponentTransfer>
    <feFuncR type="gamma" amplitude="1" exponent="2.4" offset="0"/>
    <feFuncG type="gamma" amplitude="1" exponent="2.4" offset="0"/>
    <feFuncB type="gamma" amplitude="1" exponent="2.4" offset="0"/>
   </feComponentTransfer>
  </filter>
 </defs>
 <g id="Document" fill="none" stroke="black" font-family="Times New Roman" font-size="16" transform="scale(1 -1)">
  <g id="Spread" transform="translate(0 -841.891)">
   <g id="Frame">
    <path d="M 488.309,63.59 C 424.79,61.553 361.233,60.742 297.638,61.016 C 234.043,60.742 170.486,61.553 106.967,63.59 C 74.907,63.59 47.422,90.404 47.422,120.911 L 47.422,746.193 C 47.422,776.7 74.907,803.514 106.967,803.514 C 170.486,805.551 234.043,806.362 297.638,806.088 C 361.233,806.362 424.79,805.551 488.309,803.514 C 520.369,803.514 547.854,776.7 547.854,746.193 L 547.854,120.911 C 547.854,90.404 520.369,63.59 488.309,63.59 Z" stroke-width="2.25" stroke="#000000" stroke-linejoin="miter" stroke-linecap="round" marker-start="none" marker-end="none" stroke-miterlimit="79.8403193612775"/>
   </g>
   <g id="Screen">
    <path d="M 103.389,124.161 L 491.886,124.161 L 491.886,742.364 L 103.389,742.364 L 103.389,124.161 Z" stroke-width="1.125" stroke="#000000" stroke-linecap="round" stroke-linejoin="miter" marker-start="none" marker-end="none" stroke-miterlimit="79.8403193612775"/>
    <path d="M 103.448,743.058 L 103.448,731.425 L 492.291,731.425 L 492.291,743.058 L 103.448,743.058 Z" fill="#000000" stroke="#000000" stroke-width="0.315" stroke-linecap="round" stroke-linejoin="miter" marker-start="none" marker-end="none" stroke-miterlimit="79.8403193612775"/>
    <path d="M 103.389,146.512 L 103.389,124.161 L 491.822,124.161 L 491.822,146.512 L 103.389,146.512 Z" fill="#000000" stroke="#000000" stroke-width="0.315" stroke-linecap="round" stroke-linejoin="miter" marker-start="none" marker-end="none" stroke-miterlimit="79.8403193612775"/>
    <path d="M 233.857,133.551 L 244.459,133.485 C 248.374,133.545 248.77,129.017 243.983,128.933 L 238.766,128.991" fill="none" stroke="#ffffff" stroke-width="0.787" stroke-linejoin="round" stroke-linecap="square" stroke-miterlimit="79.8403193612775"/>
    <path d="M 235.284,136.107 L 232.956,133.636 L 235.553,131.047" fill="none" stroke="#ffffff" stroke-width="0.787" stroke-linejoin="round" stroke-linecap="square" stroke-miterlimit="79.8403193612775"/>
    <path d="M 294.212,129.799 L 294.212,134.552 L 302.175,137.635 L 310.136,134.552 L 310.136,129.799 L 294.212,129.799 Z" stroke="#ffffff" stroke-width="0.787" stroke-linejoin="miter" marker-start="none" marker-end="none" stroke-miterlimit="79.8403193612775"/>
    <path d="M 358.259,133.823 L 358.259,129.134 L 370.304,129.134 L 370.304,133.823 L 358.259,133.823 Z" stroke="#ffffff" stroke-width="0.787" stroke-linejoin="miter" marker-start="none" marker-end="none" stroke-miterlimit="79.8403193612775"/>
    <path d="M 362.042,136.222 L 373.36,136.222" fill="none" stroke="#ffffff" stroke-width="0.787" stroke-linejoin="round" stroke-linecap="square" stroke-miterlimit="79.8403193612775"/>
    <path d="M 373.36,131.367 L 373.36,136.081" fill="none" stroke="#ffffff" stroke-width="0.787" stroke-linejoin="round" stroke-linecap="square" stroke-miterlimit="79.8403193612775"/>
    <text xml:space="preserve" transform="translate(466.987 734.675) scale(1 -1)" font-size="7" fill="#ffffff" font-family="Open Sans" stroke="none" stroke-width="0.25" stroke-linecap="round" stroke-linejoin="round" stroke-miterlimit="79.8403193612775"><tspan x="2.417" y="0">9:15</tspan></text>
   </g>
  </g>
 </g>
</svg>
