<?xml version="1.0" standalone="no"?>
<!DOCTYPE svg PUBLIC "-//W3C//DTD SVG 1.1//EN" "http://www.w3.org/Graphics/SVG/1.1/DTD/svg11.dtd">
<svg stroke-width="0.501" stroke-linejoin="bevel" fill-rule="evenodd" xmlns:xlink="http://www.w3.org/1999/xlink" xmlns="http://www.w3.org/2000/svg" version="1.1" overflow="visible" width="841.891pt" height="595.277pt" viewBox="0 0 841.891 595.277">
 <defs>
  <marker id="DefaultArrow2" markerUnits="strokeWidth" viewBox="0 0 1 1" markerWidth="1" markerHeight="1" overflow="visible" orient="auto">
   <!-- REF_ARROW_STRAIGHT (-2) -->
   <g transform="scale(0.0092592592)">
    <!-- 1/108 -->
    <path d="M -9 54 L -9 -54 L 117 0 z"/>
   </g>
  </marker>
  <marker id="DefaultArrow3" markerUnits="strokeWidth" viewBox="0 0 1 1" markerWidth="1" markerHeight="1" overflow="visible" orient="auto">
   <!-- REF_ARROW_ANGLED -->
   <g transform="scale(0.0092592592)">
    <path d="M -27 54 L -9 0 L -27 -54 L 135 0 z"/>
   </g>
  </marker>
  <marker id="DefaultArrow4" markerUnits="strokeWidth" viewBox="0 0 1 1" markerWidth="1" markerHeight="1" overflow="visible" orient="auto">
   <!-- REF_ARROW_ROUNDED -->
   <g transform="scale(0.0092592592)">
    <path d="M -9,0 L -9,-45 C -9,-51.708 2.808,-56.580 9,-54 L 117,-9 C 120.916,-7.369 126.000,-4.242 126,0 C 126,4.242 120.916,7.369 117,9 L 9,54 C 2.808,56.580 -9,51.708 -9,45 z"/>
   </g>
  </marker>
  <marker id="DefaultArrow5" markerUnits="strokeWidth" viewBox="0 0 1 1" markerWidth="1" markerHeight="1" overflow="visible" orient="auto">
   <!-- REF_ARROW_SPOT -->
   <g transform="scale(0.0092592592)">
    <path d="M -54, 0 C -54,29.807 -29.807,54 0,54 C 29.807,54 54,29.807 54,0 C 54,-29.807 29.807,-54 0,-54 C -29.807,-54 -54,-29.807 -54,0 z"/>
   </g>
  </marker>
  <marker id="DefaultArrow6" markerUnits="strokeWidth" viewBox="0 0 1 1" markerWidth="1" markerHeight="1" overflow="visible" orient="auto">
   <!-- REF_ARROW_DIAMOND -->
   <g transform="scale(0.0092592592)">
    <path d="M -63,0 L 0,63 L 63,0 L 0,-63 z"/>
   </g>
  </marker>
  <marker id="DefaultArrow7" markerUnits="strokeWidth" viewBox="0 0 1 1" markerWidth="1" markerHeight="1" overflow="visible" orient="auto">
   <!-- REF_ARROW_FEATHER -->
   <g transform="scale(0.0092592592)">
    <path d="M 18,-54 L 108,-54 L 63,0 L 108,54 L 18, 54 L -36,0 z"/>
   </g>
  </marker>
  <marker id="DefaultArrow8" markerUnits="strokeWidth" viewBox="0 0 1 1" markerWidth="1" markerHeight="1" overflow="visible" orient="auto">
   <!-- REF_ARROW_FEATHER2 -->
   <g transform="scale(0.0092592592)">
    <path d="M -36,0 L 18,-54 L 54,-54 L 18,-18 L 27,-18 L 63,-54 L 99,-54 L 63,-18 L 72,-18 L 108,-54 L 144,-54 L 90,0 L 144,54 L 108,54 L 72,18 L 63,18 L 99,54 L 63,54 L 27,18 L 18,18 L 54,54 L 18,54 z"/>
   </g>
  </marker>
  <marker id="DefaultArrow9" markerUnits="strokeWidth" viewBox="0 0 1 1" markerWidth="1" markerHeight="1" overflow="visible" orient="auto">
   <!-- REF_ARROW_HOLLOWDIAMOND -->
   <g transform="scale(0.0092592592)">
    <path d="M 0,45 L -45,0 L 0, -45 L 45, 0 z M 0, 63 L-63, 0 L 0, -63 L 63, 0 z"/>
   </g>
  </marker>
  <filter id="StainedFilter">
   <feBlend mode="multiply" in2="BackgroundImage" in="SourceGraphic" result="blend"/>
   <feComposite in="blend" in2="SourceAlpha" operator="in" result="comp"/>
  </filter>
  <filter id="BleachFilter">
   <feBlend mode="screen" in2="BackgroundImage" in="SourceGraphic" result="blend"/>
   <feComposite in="blend" in2="SourceAlpha" operator="in" result="comp"/>
  </filter>
  <filter id="InvertTransparencyBitmapFilter">
   <feComponentTransfer>
    <feFuncR type="gamma" amplitude="1.055" exponent=".416666666" offset="-0.055"/>
    <feFuncG type="gamma" amplitude="1.055" exponent=".416666666" offset="-0.055"/>
    <feFuncB type="gamma" amplitude="1.055" exponent=".416666666" offset="-0.055"/>
   </feComponentTransfer>
   <feComponentTransfer>
    <feFuncR type="linear" slope="-1" intercept="1"/>
    <feFuncG type="linear" slope="-1" intercept="1"/>
    <feFuncB type="linear" slope="-1" intercept="1"/>
    <feFuncA type="linear" slope="1" intercept="0"/>
   </feComponentTransfer>
   <feComponentTransfer>
    <feFuncR type="gamma" amplitude="1" exponent="2.4" offset="0"/>
    <feFuncG type="gamma" amplitude="1" exponent="2.4" offset="0"/>
    <feFuncB type="gamma" amplitude="1" exponent="2.4" offset="0"/>
   </feComponentTransfer>
  </filter>
 </defs>
 <g id="Document" fill="none" stroke="black" font-family="Times New Roman" font-size="16" transform="scale(1 -1)">
  <g id="Spread" transform="translate(0 -595.277)">
   <g id="Frame">
    <path d="M 50.983,114.967 C 48.946,178.486 48.135,242.043 48.409,305.638 C 48.135,369.233 48.946,432.79 50.983,496.309 C 50.983,528.369 77.797,555.854 108.304,555.854 L 733.586,555.854 C 764.093,555.854 790.907,528.369 790.907,496.309 C 792.944,432.79 793.755,369.233 793.481,305.638 C 793.755,242.043 792.944,178.486 790.907,114.967 C 790.907,82.907 764.093,55.422 733.586,55.422 L 108.304,55.422 C 77.797,55.422 50.983,82.907 50.983,114.967 Z" stroke-width="2.25" stroke="#000000" stroke-linejoin="miter" stroke-linecap="round" marker-start="none" marker-end="none" stroke-miterlimit="79.8403193612775"/>
    <path d="M 449.284,531.303 C 450.94,532.545 453.292,532.209 454.534,530.553 C 455.776,528.897 455.44,526.545 453.784,525.303 C 452.128,524.061 449.776,524.397 448.534,526.053 C 447.292,527.709 447.628,530.061 449.284,531.303 Z" stroke-linejoin="miter" stroke-linecap="round" stroke="#333333" stroke-width="0.75" marker-start="none" marker-end="none" stroke-miterlimit="79.8403193612775"/>
    <path d="M 387.634,530.402 C 388.793,531.271 390.44,531.036 391.309,529.877 C 392.178,528.718 391.943,527.071 390.784,526.202 C 389.625,525.333 387.978,525.568 387.109,526.727 C 386.24,527.886 386.475,529.533 387.634,530.402 Z" stroke-linejoin="miter" stroke-linecap="round" stroke="#333333" stroke-width="0.75" marker-start="none" marker-end="none" stroke-miterlimit="79.8403193612775"/>
   </g>
   <g id="Screen">
    <g id="Group">
     <path d="M 111.843,499.887 L 111.843,111.39 L 730.046,111.39 L 730.046,499.887 L 111.843,499.887 Z" stroke-width="1.125" stroke="#000000" stroke-linecap="round" stroke-linejoin="miter" marker-start="none" marker-end="none" stroke-miterlimit="79.8403193612775"/>
     <path d="M 111.843,499.892 L 111.843,488.259 L 730.046,488.259 L 730.046,499.892 L 111.843,499.892 Z" fill="#000000" stroke="#000000" stroke-width="0.315" stroke-linecap="round" stroke-linejoin="miter" marker-start="none" marker-end="none" stroke-miterlimit="79.8403193612775"/>
     <path d="M 111.843,133.738 L 111.843,111.387 L 730.046,111.387 L 730.046,133.738 L 111.843,133.738 Z" fill="#000000" stroke="#000000" stroke-width="0.315" stroke-linecap="round" stroke-linejoin="miter" marker-start="none" marker-end="none" stroke-miterlimit="79.8403193612775"/>
     <g id="Group_1" stroke="#ffffff" stroke-width="0.787" stroke-miterlimit="79.8403193612775">
      <g id="Group_2" stroke-linejoin="round" stroke-linecap="square">
       <path d="M 350.96,122.452 L 361.562,122.386 C 365.477,122.446 365.873,117.918 361.086,117.834 L 355.869,117.892" fill="none"/>
       <path d="M 352.387,125.008 L 350.059,122.537 L 352.656,119.948" fill="none"/>
      </g>
      <path d="M 411.315,118.7 L 411.315,123.453 L 419.278,126.536 L 427.239,123.453 L 427.239,118.7 L 411.315,118.7 Z" stroke-linejoin="miter" marker-start="none" marker-end="none"/>
      <g id="Group_3">
       <path d="M 475.362,122.724 L 475.362,118.035 L 487.407,118.035 L 487.407,122.724 L 475.362,122.724 Z" stroke-linejoin="miter" marker-start="none" marker-end="none"/>
       <path d="M 479.145,125.123 L 490.463,125.123" fill="none" stroke-linejoin="round" stroke-linecap="square"/>
       <path d="M 490.463,120.268 L 490.463,124.982" fill="none" stroke-linejoin="round" stroke-linecap="square"/>
      </g>
     </g>
    </g>
    <text xml:space="preserve" transform="translate(704.742 491.509) scale(1 -1)" font-size="7" fill="#ffffff" font-family="Open Sans" stroke="none" stroke-width="0.25" stroke-linecap="round" stroke-linejoin="round" stroke-miterlimit="79.8403193612775"><tspan x="2.417" y="0">9:15</tspan></text>
   </g>
  </g>
 </g>
</svg>
