<?xml version="1.0" standalone="no"?>
<!DOCTYPE svg PUBLIC "-//W3C//DTD SVG 1.1//EN" "http://www.w3.org/Graphics/SVG/1.1/DTD/svg11.dtd">
<svg stroke-width="0.501" stroke-linejoin="bevel" fill-rule="evenodd" xmlns:xlink="http://www.w3.org/1999/xlink" xmlns="http://www.w3.org/2000/svg" version="1.1" overflow="visible" width="595.277pt" height="841.891pt" viewBox="0 0 595.277 841.891">
 <defs>
  <marker id="DefaultArrow2" markerUnits="strokeWidth" viewBox="0 0 1 1" markerWidth="1" markerHeight="1" overflow="visible" orient="auto">
   <!-- REF_ARROW_STRAIGHT (-2) -->
   <g transform="scale(0.0092592592)">
    <!-- 1/108 -->
    <path d="M -9 54 L -9 -54 L 117 0 z"/>
   </g>
  </marker>
  <marker id="DefaultArrow3" markerUnits="strokeWidth" viewBox="0 0 1 1" markerWidth="1" markerHeight="1" overflow="visible" orient="auto">
   <!-- REF_ARROW_ANGLED -->
   <g transform="scale(0.0092592592)">
    <path d="M -27 54 L -9 0 L -27 -54 L 135 0 z"/>
   </g>
  </marker>
  <marker id="DefaultArrow4" markerUnits="strokeWidth" viewBox="0 0 1 1" markerWidth="1" markerHeight="1" overflow="visible" orient="auto">
   <!-- REF_ARROW_ROUNDED -->
   <g transform="scale(0.0092592592)">
    <path d="M -9,0 L -9,-45 C -9,-51.708 2.808,-56.580 9,-54 L 117,-9 C 120.916,-7.369 126.000,-4.242 126,0 C 126,4.242 120.916,7.369 117,9 L 9,54 C 2.808,56.580 -9,51.708 -9,45 z"/>
   </g>
  </marker>
  <marker id="DefaultArrow5" markerUnits="strokeWidth" viewBox="0 0 1 1" markerWidth="1" markerHeight="1" overflow="visible" orient="auto">
   <!-- REF_ARROW_SPOT -->
   <g transform="scale(0.0092592592)">
    <path d="M -54, 0 C -54,29.807 -29.807,54 0,54 C 29.807,54 54,29.807 54,0 C 54,-29.807 29.807,-54 0,-54 C -29.807,-54 -54,-29.807 -54,0 z"/>
   </g>
  </marker>
  <marker id="DefaultArrow6" markerUnits="strokeWidth" viewBox="0 0 1 1" markerWidth="1" markerHeight="1" overflow="visible" orient="auto">
   <!-- REF_ARROW_DIAMOND -->
   <g transform="scale(0.0092592592)">
    <path d="M -63,0 L 0,63 L 63,0 L 0,-63 z"/>
   </g>
  </marker>
  <marker id="DefaultArrow7" markerUnits="strokeWidth" viewBox="0 0 1 1" markerWidth="1" markerHeight="1" overflow="visible" orient="auto">
   <!-- REF_ARROW_FEATHER -->
   <g transform="scale(0.0092592592)">
    <path d="M 18,-54 L 108,-54 L 63,0 L 108,54 L 18, 54 L -36,0 z"/>
   </g>
  </marker>
  <marker id="DefaultArrow8" markerUnits="strokeWidth" viewBox="0 0 1 1" markerWidth="1" markerHeight="1" overflow="visible" orient="auto">
   <!-- REF_ARROW_FEATHER2 -->
   <g transform="scale(0.0092592592)">
    <path d="M -36,0 L 18,-54 L 54,-54 L 18,-18 L 27,-18 L 63,-54 L 99,-54 L 63,-18 L 72,-18 L 108,-54 L 144,-54 L 90,0 L 144,54 L 108,54 L 72,18 L 63,18 L 99,54 L 63,54 L 27,18 L 18,18 L 54,54 L 18,54 z"/>
   </g>
  </marker>
  <marker id="DefaultArrow9" markerUnits="strokeWidth" viewBox="0 0 1 1" markerWidth="1" markerHeight="1" overflow="visible" orient="auto">
   <!-- REF_ARROW_HOLLOWDIAMOND -->
   <g transform="scale(0.0092592592)">
    <path d="M 0,45 L -45,0 L 0, -45 L 45, 0 z M 0, 63 L-63, 0 L 0, -63 L 63, 0 z"/>
   </g>
  </marker>
  <filter id="StainedFilter">
   <feBlend mode="multiply" in2="BackgroundImage" in="SourceGraphic" result="blend"/>
   <feComposite in="blend" in2="SourceAlpha" operator="in" result="comp"/>
  </filter>
  <filter id="BleachFilter">
   <feBlend mode="screen" in2="BackgroundImage" in="SourceGraphic" result="blend"/>
   <feComposite in="blend" in2="SourceAlpha" operator="in" result="comp"/>
  </filter>
  <filter id="InvertTransparencyBitmapFilter">
   <feComponentTransfer>
    <feFuncR type="gamma" amplitude="1.055" exponent=".416666666" offset="-0.055"/>
    <feFuncG type="gamma" amplitude="1.055" exponent=".416666666" offset="-0.055"/>
    <feFuncB type="gamma" amplitude="1.055" exponent=".416666666" offset="-0.055"/>
   </feComponentTransfer>
   <feComponentTransfer>
    <feFuncR type="linear" slope="-1" intercept="1"/>
    <feFuncG type="linear" slope="-1" intercept="1"/>
    <feFuncB type="linear" slope="-1" intercept="1"/>
    <feFuncA type="linear" slope="1" intercept="0"/>
   </feComponentTransfer>
   <feComponentTransfer>
    <feFuncR type="gamma" amplitude="1" exponent="2.4" offset="0"/>
    <feFuncG type="gamma" amplitude="1" exponent="2.4" offset="0"/>
    <feFuncB type="gamma" amplitude="1" exponent="2.4" offset="0"/>
   </feComponentTransfer>
  </filter>
 </defs>
 <g id="Document" fill="none" stroke="black" font-family="Times New Roman" font-size="16" transform="scale(1 -1)">
  <g id="Spread" transform="translate(0 -841.891)">
   <g id="Browser frame">
    <path d="M 37.645,770.674 L 37.645,734.127 L 559.766,734.127 L 559.766,770.674 L 37.645,770.674 Z" stroke="none" fill="#4c4c4c" stroke-width="0.75" stroke-linecap="round" stroke-linejoin="miter" marker-start="none" marker-end="none" stroke-miterlimit="79.8403193612775"/>
    <path d="M 109.103,760.535 L 109.103,748.062 C 109.103,747.263 109.752,746.614 110.551,746.614 L 521.578,746.614 C 522.377,746.614 523.026,747.263 523.026,748.062 L 523.026,760.535 C 523.026,761.334 522.377,761.983 521.578,761.983 L 110.551,761.983 C 109.752,761.983 109.103,761.334 109.103,760.535 Z" fill="#ffffff" stroke-width="0.75" stroke="#ffffff" stroke-linecap="round" stroke-linejoin="miter" marker-start="none" marker-end="none" stroke-miterlimit="79.8403193612775"/>
    <path d="M 35.511,800.951 L 35.511,63.74 C 35.511,60.428 38.2,57.739 41.512,57.739 L 553.765,57.739 C 557.077,57.739 559.766,60.428 559.766,63.74 L 559.766,800.951 C 559.766,804.263 557.077,806.952 553.765,806.952 L 41.512,806.952 C 38.2,806.952 35.511,804.263 35.511,800.951 Z" stroke="#4c4c4c" stroke-width="4.5" stroke-linecap="round" stroke-linejoin="miter" marker-start="none" marker-end="none" stroke-miterlimit="79.8403193612775"/>
    <path d="M 38.699,772.527 L 557.517,772.527" fill="none" stroke="#4c4c4c" stroke-width="4.5" stroke-linejoin="round" stroke-linecap="square" stroke-miterlimit="79.8403193612775"/>
    <text xml:space="preserve" transform="translate(46.401 785.553) scale(1 -1) scale(1.00002 1)" font-size="12" font-weight="bold" font-family="Calibri" fill="#4c4c4c" stroke-linejoin="round" stroke-linecap="round" stroke-width="0.25" stroke="none" stroke-miterlimit="79.8403193612775"><tspan x="0" y="0">TITLE</tspan></text>
    <text xml:space="preserve" transform="translate(503.729 785.553) scale(1 -1) scale(1.00002 1)" font-size="12" font-weight="bold" font-family="Calibri" fill="#4c4c4c" stroke-linejoin="round" stroke-linecap="round" stroke-width="0.25" stroke="none" stroke-miterlimit="79.8403193612775"><tspan x="0" y="0">NO</tspan><tspan x="15.843758243435" y="0">.</tspan></text>
    <path d="M 496.642,804.64 L 496.642,773.588" fill="none" stroke-width="1.5" stroke-linejoin="round" stroke-linecap="square" stroke="#4c4c4c" stroke-miterlimit="79.8403193612775"/>
    <path d="M 87.491,747.705 L 87.491,755.278 L 85.624,755.278 L 92.561,761.675 L 99.501,755.278 L 97.632,755.278 L 97.632,747.705 L 94.419,747.705 L 94.419,752.012 L 90.605,752.012 L 90.605,747.705 L 87.491,747.705 Z" stroke="#ffffff" stroke-linejoin="miter" stroke-linecap="round" stroke-width="1.004" marker-start="none" marker-end="none" stroke-miterlimit="79.8403193612775"/>
    <path d="M 52.75,748.863 L 46.401,754.404 L 52.751,759.95 L 52.75,757.604 L 58.924,757.604 L 58.924,751.206 L 52.75,751.206 L 52.75,748.863 Z" stroke="#ffffff" stroke-width="1.125" stroke-linejoin="miter" stroke-linecap="round" marker-start="none" marker-end="none" stroke-miterlimit="79.8403193612775"/>
    <path d="M 72.941,759.951 L 79.29,754.41 L 72.94,748.864 L 72.941,751.21 L 66.767,751.21 L 66.767,757.608 L 72.941,757.608 L 72.941,759.951 Z" stroke="#ffffff" stroke-width="1.125" stroke-linejoin="miter" stroke-linecap="round" marker-start="none" marker-end="none" stroke-miterlimit="79.8403193612775"/>
   </g>
  </g>
 </g>
</svg>
